<svg width="245" height="128" viewBox="0 0 245 128" fill="none" xmlns="http://www.w3.org/2000/svg">
<path d="M122.994 126.661C157.6 126.661 185.653 98.755 185.653 64.3307C185.653 29.9064 157.6 1.99998 122.994 1.99998C88.3884 1.99998 60.3348 29.9064 60.3348 64.3307C60.3348 98.755 88.3884 126.661 122.994 126.661Z" stroke="white" stroke-width="1.51786" stroke-miterlimit="10"/>
<path d="M122.994 126.661C147.519 126.661 167.4 98.755 167.4 64.3307C167.4 29.9064 147.519 1.99998 122.994 1.99998C98.469 1.99998 78.5876 29.9064 78.5876 64.3307C78.5876 98.755 98.469 126.661 122.994 126.661Z" stroke="white" stroke-width="1.51786" stroke-miterlimit="10"/>
<path d="M122.994 126.661C137.454 126.661 149.176 98.755 149.176 64.3307C149.176 29.9064 137.454 1.99998 122.994 1.99998C108.534 1.99998 96.8121 29.9064 96.8121 64.3307C96.8121 98.755 108.534 126.661 122.994 126.661Z" stroke="white" stroke-width="1.51786" stroke-miterlimit="10"/>
<path d="M122.994 126.661C127.373 126.661 130.923 98.755 130.923 64.3307C130.923 29.9064 127.373 1.99998 122.994 1.99998C118.615 1.99998 115.066 29.9064 115.066 64.3307C115.066 98.755 118.615 126.661 122.994 126.661Z" stroke="white" stroke-width="1.51786" stroke-miterlimit="10"/>
<path d="M87.9141 12.7807H158.217" stroke="white" stroke-width="1.51786" stroke-miterlimit="10" stroke-linecap="round"/>
<path d="M68.5199 33.406H177.439" stroke="white" stroke-width="1.51786" stroke-miterlimit="10" stroke-linecap="round"/>
<path d="M68.5763 95.2265H177.382" stroke="white" stroke-width="1.51786" stroke-miterlimit="10" stroke-linecap="round"/>
<path d="M87.7428 115.852H158.217" stroke="white" stroke-width="1.51786" stroke-miterlimit="10" stroke-linecap="round"/>
<path d="M26.5544 53.3145H16.4964L8.5388 76.3887H15.3427L16.6148 71.8922H25.874L27.3235 76.3887H34.4233L26.5544 53.3145ZM18.0643 66.8632L21.2888 58.0477H21.5254L24.4836 66.8632H18.0643ZM40.9598 58.6393H46.0184C50.012 58.6393 50.6924 59.3789 50.6924 64.8516C50.6924 70.2651 50.012 71.0639 46.0184 71.0639H40.9598L40.9303 64.8516L40.9598 58.6393ZM34.7476 76.3887H46.6692C55.5143 76.3887 57.2005 74.8208 57.2005 64.8516C57.2005 54.8824 55.5143 53.3145 46.6692 53.3145H34.7476V76.3887ZM64.4866 58.6393H69.5451C73.5387 58.6393 74.2191 59.3789 74.2191 64.8516C74.2191 70.2651 73.5387 71.0639 69.5451 71.0639H64.4866L64.457 64.8516L64.4866 58.6393ZM58.2743 76.3887H70.1959C79.041 76.3887 80.7272 74.8208 80.7272 64.8516C80.7272 54.8824 79.041 53.3145 70.1959 53.3145H58.2743V76.3887ZM95.7047 76.3887H101.917V58.3435H109.046V53.3145H88.6345V58.3435H95.7047V76.3887ZM121.66 57.9885C126.778 57.9885 127.724 59.0535 127.724 64.8516C127.724 70.6497 126.778 71.7147 121.66 71.7147C116.542 71.7147 115.596 70.6497 115.596 64.8516C115.596 59.0535 116.542 57.9885 121.66 57.9885ZM109.087 64.8516C109.087 74.88 111.069 76.7437 121.66 76.7437C132.25 76.7437 134.232 74.88 134.232 64.8516C134.232 54.8232 132.25 52.9595 121.66 52.9595C111.069 52.9595 109.087 54.8232 109.087 64.8516ZM167.582 66.5969H161.074C161.133 70.916 160.216 71.7147 155.276 71.7147C150.306 71.7147 149.389 70.6497 149.389 64.8516C149.389 59.0535 150.306 57.9885 155.276 57.9885C160.216 57.9885 161.133 58.7872 161.074 63.0766H167.582C167.641 54.5569 165.718 52.9595 155.276 52.9595C144.833 52.9595 142.881 54.8232 142.881 64.8516C142.881 74.88 144.833 76.7437 155.276 76.7437C165.718 76.7437 167.641 75.1462 167.582 66.5969ZM185.619 53.3145H175.561L167.604 76.3887H174.407L175.68 71.8922H184.939L186.388 76.3887H193.488L185.619 53.3145ZM177.129 66.8632L180.354 58.0477H180.59L183.548 66.8632H177.129ZM207.598 53.3145H193.812V76.3887H200.025V68.8452H206.119C208.101 68.8452 208.722 69.496 208.722 72.0992C208.722 74.17 208.84 75.4125 209.343 76.3887H216.147V76.1224C215.2 75.0575 214.964 73.0459 214.964 70.7089C214.964 67.8986 213.632 66.9815 211.029 66.3899C214.165 65.6799 215.289 64.3783 215.289 61.6271V60.7396C215.289 54.4682 214.135 53.3145 207.598 53.3145ZM200.025 64.112V58.3435H206C208.603 58.3435 209.077 58.8464 209.077 61.1834C209.077 63.6091 208.603 64.112 206 64.112H200.025ZM223.114 76.3887H229.326V58.3435H236.455V53.3145H216.044V58.3435H223.114V76.3887Z" fill="black"/>
<path d="M26.5544 53.3145L27.3958 53.0276L27.1905 52.4256H26.5544V53.3145ZM16.4964 53.3145V52.4256H15.8627L15.6561 53.0247L16.4964 53.3145ZM8.5388 76.3887L7.69844 76.0989L7.29193 77.2776H8.5388V76.3887ZM15.3427 76.3887V77.2776H16.0151L16.1981 76.6306L15.3427 76.3887ZM16.6148 71.8922V71.0032H15.9424L15.7594 71.6502L16.6148 71.8922ZM25.874 71.8922L26.7201 71.6194L26.5214 71.0032H25.874V71.8922ZM27.3235 76.3887L26.4775 76.6614L26.6761 77.2776H27.3235V76.3887ZM34.4233 76.3887V77.2776H35.6656L35.2646 76.1018L34.4233 76.3887ZM18.0643 66.8632L17.2295 66.5578L16.7926 67.7521H18.0643V66.8632ZM21.2888 58.0477V57.1587H20.6674L20.4539 57.7423L21.2888 58.0477ZM21.5254 58.0477L22.3682 57.7649L22.1648 57.1587H21.5254V58.0477ZM24.4836 66.8632V67.7521H25.7196L25.3264 66.5804L24.4836 66.8632ZM26.5544 52.4256H16.4964V54.2034H26.5544V52.4256ZM15.6561 53.0247L7.69844 76.0989L9.37915 76.6785L17.3368 53.6043L15.6561 53.0247ZM8.5388 77.2776H15.3427V75.4997H8.5388V77.2776ZM16.1981 76.6306L17.4701 72.1341L15.7594 71.6502L14.4874 76.1467L16.1981 76.6306ZM16.6148 72.7811H25.874V71.0032H16.6148V72.7811ZM25.028 72.1649L26.4775 76.6614L28.1696 76.1159L26.7201 71.6194L25.028 72.1649ZM27.3235 77.2776H34.4233V75.4997H27.3235V77.2776ZM35.2646 76.1018L27.3958 53.0276L25.7131 53.6014L33.5819 76.6756L35.2646 76.1018ZM18.8991 67.1685L22.1236 58.353L20.4539 57.7423L17.2295 66.5578L18.8991 67.1685ZM21.2888 58.9366H21.5254V57.1587H21.2888V58.9366ZM20.6827 58.3305L23.6409 67.146L25.3264 66.5804L22.3682 57.7649L20.6827 58.3305ZM24.4836 65.9743H18.0643V67.7521H24.4836V65.9743ZM40.9598 58.6393V57.7504H40.0751L40.0709 58.6351L40.9598 58.6393ZM40.9598 71.0639L40.0709 71.0681L40.0751 71.9528H40.9598V71.0639ZM40.9303 64.8516L40.0413 64.8473L40.0413 64.8558L40.9303 64.8516ZM34.7476 76.3887H33.8586V77.2776H34.7476V76.3887ZM34.7476 53.3145V52.4256H33.8586V53.3145H34.7476ZM40.9598 59.5282H46.0184V57.7504H40.9598V59.5282ZM46.0184 59.5282C47.0074 59.5282 47.7065 59.5761 48.2199 59.7032C48.7052 59.8234 48.9673 60 49.1488 60.2356C49.3504 60.4974 49.5283 60.9305 49.6447 61.7043C49.7604 62.4741 49.8035 63.4912 49.8035 64.8516H51.5813C51.5813 63.4756 51.5393 62.3479 51.4027 61.4399C51.2668 60.5359 51.0249 59.758 50.5573 59.1507C50.0694 58.5173 49.4126 58.167 48.6472 57.9775C47.9098 57.7949 47.0262 57.7504 46.0184 57.7504V59.5282ZM49.8035 64.8516C49.8035 66.1969 49.7605 67.2065 49.6447 67.9734C49.5284 68.7441 49.3505 69.1812 49.1465 69.4483C48.7769 69.9323 48.0718 70.1749 46.0184 70.1749V71.9528C47.9586 71.9528 49.5905 71.7961 50.5595 70.5273C51.0248 69.918 51.2666 69.1404 51.4027 68.2387C51.5393 67.3334 51.5813 66.2131 51.5813 64.8516H49.8035ZM46.0184 70.1749H40.9598V71.9528H46.0184V70.1749ZM41.8488 71.0596L41.8192 64.8474L40.0413 64.8558L40.0709 71.0681L41.8488 71.0596ZM41.8192 64.8558L41.8488 58.6435L40.0709 58.6351L40.0413 64.8474L41.8192 64.8558ZM34.7476 77.2776H46.6692V75.4997H34.7476V77.2776ZM46.6692 77.2776C48.8925 77.2776 50.735 77.1805 52.2339 76.8568C53.7473 76.53 54.9755 75.9585 55.902 74.9648C56.822 73.9779 57.3583 72.6665 57.6719 71.027C57.9846 69.3927 58.0894 67.357 58.0894 64.8516H56.3116C56.3116 67.3308 56.2057 69.2295 55.9257 70.693C55.6468 72.1514 55.2087 73.1012 54.6016 73.7524C54.0009 74.3968 53.149 74.8404 51.8586 75.119C50.5537 75.4008 48.8685 75.4997 46.6692 75.4997V77.2776ZM58.0894 64.8516C58.0894 62.3462 57.9846 60.3104 57.6719 58.6761C57.3583 57.0367 56.822 55.7253 55.902 54.7384C54.9755 53.7446 53.7473 53.1732 52.2339 52.8463C50.735 52.5226 48.8925 52.4256 46.6692 52.4256V54.2034C48.8685 54.2034 50.5537 54.3023 51.8586 54.5841C53.149 54.8628 54.0009 55.3064 54.6016 55.9507C55.2087 56.602 55.6468 57.5518 55.9257 59.0102C56.2057 60.4737 56.3116 62.3724 56.3116 64.8516H58.0894ZM46.6692 52.4256H34.7476V54.2034H46.6692V52.4256ZM33.8586 53.3145V76.3887H35.6365V53.3145H33.8586ZM64.4865 58.6393V57.7504H63.6018L63.5976 58.6351L64.4865 58.6393ZM64.4865 71.0639L63.5976 71.0681L63.6018 71.9528H64.4865V71.0639ZM64.457 64.8516L63.568 64.8473L63.5681 64.8558L64.457 64.8516ZM58.2743 76.3887H57.3853V77.2776H58.2743V76.3887ZM58.2743 53.3145V52.4256H57.3853V53.3145H58.2743ZM64.4865 59.5282H69.5451V57.7504H64.4865V59.5282ZM69.5451 59.5282C70.5341 59.5282 71.2332 59.5761 71.7466 59.7032C72.2319 59.8234 72.494 60 72.6755 60.2356C72.8771 60.4974 73.055 60.9305 73.1714 61.7043C73.2872 62.4741 73.3302 63.4912 73.3302 64.8516H75.108C75.108 63.4756 75.066 62.3479 74.9295 61.4399C74.7935 60.5359 74.5517 59.758 74.084 59.1507C73.5961 58.5173 72.9394 58.167 72.1739 57.9775C71.4365 57.7949 70.5529 57.7504 69.5451 57.7504V59.5282ZM73.3302 64.8516C73.3302 66.1969 73.2872 67.2065 73.1714 67.9734C73.0551 68.7441 72.8772 69.1812 72.6733 69.4483C72.3036 69.9323 71.5985 70.1749 69.5451 70.1749V71.9528C71.4853 71.9528 73.1172 71.7961 74.0862 70.5273C74.5516 69.918 74.7933 69.1404 74.9294 68.2387C75.066 67.3334 75.108 66.2131 75.108 64.8516H73.3302ZM69.5451 70.1749H64.4865V71.9528H69.5451V70.1749ZM65.3755 71.0596L65.3459 64.8474L63.5681 64.8558L63.5976 71.0681L65.3755 71.0596ZM65.3459 64.8558L65.3755 58.6435L63.5976 58.6351L63.5681 64.8474L65.3459 64.8558ZM58.2743 77.2776H70.1959V75.4997H58.2743V77.2776ZM70.1959 77.2776C72.4192 77.2776 74.2617 77.1805 75.7606 76.8568C77.274 76.53 78.5022 75.9585 79.4287 74.9648C80.3487 73.9779 80.885 72.6665 81.1986 71.027C81.5113 69.3927 81.6161 67.357 81.6161 64.8516H79.8383C79.8383 67.3308 79.7324 69.2295 79.4525 70.693C79.1735 72.1514 78.7354 73.1012 78.1283 73.7524C77.5276 74.3968 76.6758 74.8404 75.3853 75.119C74.0804 75.4008 72.3952 75.4997 70.1959 75.4997V77.2776ZM81.6161 64.8516C81.6161 62.3462 81.5113 60.3104 81.1986 58.6761C80.885 57.0367 80.3487 55.7253 79.4287 54.7384C78.5022 53.7446 77.274 53.1732 75.7606 52.8463C74.2617 52.5226 72.4192 52.4256 70.1959 52.4256V54.2034C72.3952 54.2034 74.0804 54.3023 75.3853 54.5841C76.6758 54.8628 77.5276 55.3064 78.1283 55.9507C78.7354 56.602 79.1735 57.5518 79.4525 59.0102C79.7324 60.4737 79.8383 62.3724 79.8383 64.8516H81.6161ZM70.1959 52.4256H58.2743V54.2034H70.1959V52.4256ZM57.3853 53.3145V76.3887H59.1632V53.3145H57.3853ZM95.7047 76.3887H94.8158V77.2776H95.7047V76.3887ZM101.917 76.3887V77.2776H102.806V76.3887H101.917ZM101.917 58.3435V57.4546H101.028V58.3435H101.917ZM109.046 58.3435V59.2324H109.935V58.3435H109.046ZM109.046 53.3145H109.935V52.4256H109.046V53.3145ZM88.6345 53.3145V52.4256H87.7456V53.3145H88.6345ZM88.6345 58.3435H87.7456V59.2324H88.6345V58.3435ZM95.7047 58.3435H96.5936V57.4546H95.7047V58.3435ZM95.7047 77.2776H101.917V75.4997H95.7047V77.2776ZM102.806 76.3887V58.3435H101.028V76.3887H102.806ZM101.917 59.2324H109.046V57.4546H101.917V59.2324ZM109.935 58.3435V53.3145H108.157V58.3435H109.935ZM109.046 52.4256H88.6345V54.2034H109.046V52.4256ZM87.7456 53.3145V58.3435H89.5234V53.3145H87.7456ZM88.6345 59.2324H95.7047V57.4546H88.6345V59.2324ZM94.8158 58.3435V76.3887H96.5936V58.3435H94.8158ZM121.66 58.8774C122.923 58.8774 123.857 58.9446 124.563 59.1107C125.251 59.2729 125.664 59.516 125.945 59.8346C126.236 60.1636 126.469 60.6651 126.622 61.4943C126.776 62.3272 126.835 63.4149 126.835 64.8516H128.613C128.613 63.3892 128.554 62.1695 128.371 61.172C128.186 60.1707 127.863 59.3189 127.277 58.6569C126.683 57.9845 125.899 57.599 124.97 57.3802C124.059 57.1655 122.956 57.0996 121.66 57.0996V58.8774ZM126.835 64.8516C126.835 66.2883 126.776 67.376 126.622 68.2089C126.469 69.038 126.236 69.5395 125.945 69.8686C125.664 70.1872 125.251 70.4303 124.563 70.5924C123.857 70.7585 122.923 70.8257 121.66 70.8257V72.6036C122.956 72.6036 124.059 72.5377 124.97 72.3229C125.899 72.1042 126.683 71.7187 127.277 71.0463C127.863 70.3843 128.186 69.5324 128.371 68.5312C128.554 67.5336 128.613 66.3139 128.613 64.8516H126.835ZM121.66 70.8257C120.397 70.8257 119.462 70.7585 118.757 70.5924C118.069 70.4303 117.656 70.1872 117.374 69.8686C117.084 69.5395 116.85 69.038 116.698 68.2089C116.544 67.376 116.484 66.2883 116.484 64.8516H114.707C114.707 66.3139 114.765 67.5336 114.949 68.5312C115.134 69.5324 115.457 70.3843 116.043 71.0463C116.637 71.7187 117.421 72.1042 118.349 72.3229C119.261 72.5377 120.364 72.6036 121.66 72.6036V70.8257ZM116.484 64.8516C116.484 63.4149 116.544 62.3272 116.698 61.4943C116.85 60.6651 117.084 60.1636 117.374 59.8346C117.656 59.516 118.069 59.2729 118.757 59.1107C119.462 58.9446 120.397 58.8774 121.66 58.8774V57.0996C120.364 57.0996 119.261 57.1655 118.349 57.3802C117.421 57.599 116.637 57.9845 116.043 58.6569C115.457 59.3189 115.134 60.1707 114.949 61.172C114.765 62.1695 114.707 63.3892 114.707 64.8516H116.484ZM108.199 64.8516C108.199 67.3748 108.322 69.4504 108.695 71.1328C109.07 72.8281 109.713 74.1845 110.792 75.2043C111.866 76.2197 113.285 76.8176 115.055 77.1678C116.818 77.5166 118.998 77.6326 121.66 77.6326V75.8547C119.026 75.8547 116.987 75.7378 115.4 75.4237C113.82 75.1111 112.758 74.6163 112.013 73.9122C111.273 73.2125 110.757 72.2227 110.43 70.7481C110.101 69.2606 109.976 67.3425 109.976 64.8516H108.199ZM121.66 77.6326C124.322 77.6326 126.502 77.5166 128.265 77.1678C130.035 76.8176 131.454 76.2197 132.528 75.2043C133.607 74.1845 134.249 72.8281 134.625 71.1328C134.998 69.4504 135.121 67.3748 135.121 64.8516H133.343C133.343 67.3425 133.219 69.2606 132.889 70.7481C132.563 72.2227 132.047 73.2125 131.307 73.9122C130.562 74.6163 129.5 75.1111 127.92 75.4237C126.332 75.7378 124.293 75.8547 121.66 75.8547V77.6326ZM135.121 64.8516C135.121 62.3283 134.998 60.2528 134.625 58.5704C134.249 56.875 133.607 55.5186 132.528 54.4989C131.454 53.4834 130.035 52.8855 128.265 52.5354C126.502 52.1866 124.322 52.0706 121.66 52.0706V53.8484C124.293 53.8484 126.332 53.9654 127.92 54.2794C129.5 54.5921 130.562 55.0869 131.307 55.7909C132.047 56.4906 132.563 57.4805 132.889 58.9551C133.219 60.4426 133.343 62.3606 133.343 64.8516H135.121ZM121.66 52.0706C118.998 52.0706 116.818 52.1866 115.055 52.5354C113.285 52.8855 111.866 53.4834 110.792 54.4989C109.713 55.5186 109.07 56.875 108.695 58.5704C108.322 60.2528 108.199 62.3283 108.199 64.8516H109.976C109.976 62.3606 110.101 60.4426 110.43 58.9551C110.757 57.4805 111.273 56.4906 112.013 55.7909C112.758 55.0869 113.82 54.5921 115.4 54.2794C116.987 53.9654 119.026 53.8484 121.66 53.8484V52.0706ZM167.582 66.5969L168.471 66.5908L168.465 65.708H167.582V66.5969ZM161.074 66.5969V65.708H160.173L160.185 66.6091L161.074 66.5969ZM161.074 63.0766L160.185 63.0644L160.173 63.9656H161.074V63.0766ZM167.582 63.0766V63.9656H168.465L168.471 63.0828L167.582 63.0766ZM167.582 65.708H161.074V67.4859H167.582V65.708ZM160.185 66.6091C160.2 67.6713 160.152 68.4454 160.021 69.0219C159.894 69.5806 159.702 69.8968 159.462 70.1085C159.21 70.3306 158.81 70.521 158.115 70.6479C157.416 70.7754 156.498 70.8257 155.276 70.8257V72.6036C156.524 72.6036 157.573 72.5541 158.434 72.3969C159.298 72.2391 160.05 71.9598 160.637 71.4424C161.236 70.9146 161.572 70.2212 161.755 69.4154C161.933 68.6274 161.978 67.6821 161.963 66.5848L160.185 66.6091ZM155.276 70.8257C152.748 70.8257 151.696 70.523 151.143 69.8785C150.861 69.5498 150.634 69.0463 150.485 68.2136C150.336 67.3784 150.278 66.2888 150.278 64.8516H148.5C148.5 66.3135 148.557 67.5312 148.735 68.5265C148.913 69.5241 149.226 70.3741 149.794 71.0363C150.942 72.3739 152.834 72.6036 155.276 72.6036V70.8257ZM150.278 64.8516C150.278 63.4144 150.336 62.3248 150.485 61.4896C150.634 60.6568 150.861 60.1534 151.143 59.8247C151.696 59.1802 152.748 58.8774 155.276 58.8774V57.0996C152.834 57.0996 150.942 57.3293 149.794 58.6668C149.226 59.3291 148.913 60.179 148.735 61.1767C148.557 62.1719 148.5 63.3897 148.5 64.8516H150.278ZM155.276 58.8774C156.498 58.8774 157.417 58.9278 158.115 59.0549C158.811 59.1815 159.211 59.3713 159.464 59.5925C159.704 59.8028 159.895 60.1163 160.021 60.6699C160.152 61.2417 160.2 62.0098 160.185 63.0644L161.963 63.0889C161.978 61.9988 161.933 61.0585 161.754 60.2741C161.571 59.4716 161.235 58.7811 160.636 58.2556C160.049 57.7409 159.297 57.4629 158.433 57.3058C157.572 57.1491 156.524 57.0996 155.276 57.0996V58.8774ZM161.074 63.9656H167.582V62.1877H161.074V63.9656ZM168.471 63.0828C168.5 58.8597 168.073 55.8994 165.932 54.1369C164.876 53.2674 163.488 52.7623 161.763 52.4661C160.038 52.17 157.899 52.0706 155.276 52.0706V53.8484C157.874 53.8484 159.891 53.9487 161.462 54.2183C163.033 54.4879 164.08 54.9147 164.802 55.5095C166.219 56.6756 166.723 58.7739 166.693 63.0705L168.471 63.0828ZM155.276 52.0706C152.651 52.0706 150.499 52.1866 148.759 52.5358C147.011 52.8867 145.608 53.486 144.547 54.5032C143.483 55.5238 142.85 56.8798 142.481 58.573C142.113 60.2542 141.992 62.3286 141.992 64.8516H143.77C143.77 62.3603 143.892 60.4412 144.218 58.9524C144.54 57.4757 145.049 56.4854 145.778 55.7866C146.51 55.0844 147.554 54.591 149.109 54.279C150.671 53.9654 152.679 53.8484 155.276 53.8484V52.0706ZM141.992 64.8516C141.992 67.3745 142.113 69.449 142.481 71.1301C142.85 72.8234 143.483 74.1793 144.547 75.1999C145.608 76.2172 147.011 76.8165 148.759 77.1673C150.499 77.5166 152.651 77.6326 155.276 77.6326V75.8547C152.679 75.8547 150.671 75.7378 149.109 75.4242C147.554 75.1122 146.51 74.6188 145.778 73.9166C145.049 73.2177 144.54 72.2274 144.218 70.7508C143.892 69.262 143.77 67.3428 143.77 64.8516H141.992ZM155.276 77.6326C157.898 77.6326 160.038 77.5331 161.763 77.2365C163.488 76.9399 164.877 76.4337 165.933 75.5618C168.073 73.7955 168.5 70.8281 168.471 66.5908L166.693 66.6031C166.723 70.915 166.218 73.021 164.801 74.1907C164.079 74.7869 163.032 75.2144 161.462 75.4844C159.891 75.7545 157.874 75.8547 155.276 75.8547V77.6326ZM185.619 53.3145L186.461 53.0276L186.255 52.4256H185.619V53.3145ZM175.561 53.3145V52.4256H174.927L174.721 53.0247L175.561 53.3145ZM167.604 76.3887L166.763 76.0989L166.357 77.2776H167.604V76.3887ZM174.407 76.3887V77.2776H175.08L175.263 76.6306L174.407 76.3887ZM175.68 71.8922V71.0032H175.007L174.824 71.6502L175.68 71.8922ZM184.939 71.8922L185.785 71.6194L185.586 71.0032H184.939V71.8922ZM186.388 76.3887L185.542 76.6614L185.741 77.2776H186.388V76.3887ZM193.488 76.3887V77.2776H194.73L194.329 76.1018L193.488 76.3887ZM177.129 66.8632L176.294 66.5578L175.857 67.7521H177.129V66.8632ZM180.354 58.0477V57.1587H179.732L179.519 57.7423L180.354 58.0477ZM180.59 58.0477L181.433 57.7649L181.23 57.1587H180.59V58.0477ZM183.548 66.8632V67.7521H184.784L184.391 66.5804L183.548 66.8632ZM185.619 52.4256H175.561V54.2034H185.619V52.4256ZM174.721 53.0247L166.763 76.0989L168.444 76.6785L176.402 53.6043L174.721 53.0247ZM167.604 77.2776H174.407V75.4997H167.604V77.2776ZM175.263 76.6306L176.535 72.1341L174.824 71.6502L173.552 76.1467L175.263 76.6306ZM175.68 72.7811H184.939V71.0032H175.68V72.7811ZM184.093 72.1649L185.542 76.6614L187.234 76.1159L185.785 71.6194L184.093 72.1649ZM186.388 77.2776H193.488V75.4997H186.388V77.2776ZM194.329 76.1018L186.461 53.0276L184.778 53.6014L192.647 76.6756L194.329 76.1018ZM177.964 67.1685L181.188 58.353L179.519 57.7423L176.294 66.5578L177.964 67.1685ZM180.354 58.9366H180.59V57.1587H180.354V58.9366ZM179.747 58.3305L182.706 67.146L184.391 66.5804L181.433 57.7649L179.747 58.3305ZM183.548 65.9743H177.129V67.7521H183.548V65.9743ZM193.812 53.3145V52.4256H192.923V53.3145H193.812ZM193.812 76.3887H192.923V77.2776H193.812V76.3887ZM200.025 76.3887V77.2776H200.914V76.3887H200.025ZM200.025 68.8452V67.9563H199.136V68.8452H200.025ZM209.343 76.3887L208.553 76.7958L208.801 77.2776H209.343V76.3887ZM216.147 76.3887V77.2776H217.036V76.3887H216.147ZM216.147 76.1224H217.036V75.7845L216.811 75.5319L216.147 76.1224ZM211.029 66.3899L210.833 65.5229L210.832 67.2567L211.029 66.3899ZM200.025 64.112H199.136V65.001H200.025V64.112ZM200.025 58.3435V57.4546H199.136V58.3435H200.025ZM207.598 52.4256H193.812V54.2034H207.598V52.4256ZM192.923 53.3145V76.3887H194.701V53.3145H192.923ZM193.812 77.2776H200.025V75.4997H193.812V77.2776ZM200.914 76.3887V68.8452H199.136V76.3887H200.914ZM200.025 69.7341H206.119V67.9563H200.025V69.7341ZM206.119 69.7341C207.067 69.7341 207.347 69.9034 207.478 70.062C207.66 70.2822 207.833 70.7955 207.833 72.0992H209.611C209.611 70.7997 209.473 69.686 208.849 68.93C208.174 68.1124 207.153 67.9563 206.119 67.9563V69.7341ZM207.833 72.0992C207.833 74.1562 207.939 75.6047 208.553 76.7958L210.133 75.9816C209.741 75.2202 209.611 74.1838 209.611 72.0992H207.833ZM209.343 77.2776H216.147V75.4997H209.343V77.2776ZM217.036 76.3887V76.1224H215.258V76.3887H217.036ZM216.811 75.5319C216.491 75.1718 216.238 74.5841 216.073 73.7257C215.911 72.8782 215.853 71.8555 215.853 70.7089H214.075C214.075 71.8992 214.134 73.0508 214.327 74.0596C214.518 75.0575 214.856 76.0081 215.483 76.713L216.811 75.5319ZM215.853 70.7089C215.853 69.1625 215.483 67.9654 214.599 67.087C213.755 66.247 212.56 65.8262 211.226 65.523L210.832 67.2567C212.102 67.5452 212.874 67.8787 213.346 68.3477C213.779 68.7784 214.075 69.445 214.075 70.7089H215.853ZM211.226 67.2568C212.862 66.8863 214.144 66.3279 215 65.3641C215.874 64.3798 216.178 63.1167 216.178 61.6271H214.4C214.4 62.8887 214.142 63.652 213.67 64.1838C213.18 64.7361 212.332 65.1834 210.833 65.5229L211.226 67.2568ZM216.178 61.6271V60.7396H214.4V61.6271H216.178ZM216.178 60.7396C216.178 59.1578 216.107 57.8335 215.876 56.749C215.643 55.6529 215.235 54.7364 214.514 54.0372C213.796 53.3406 212.857 52.9468 211.732 52.7212C210.616 52.4971 209.246 52.4256 207.598 52.4256V54.2034C209.218 54.2034 210.444 54.2761 211.383 54.4643C212.313 54.651 212.889 54.9376 213.276 55.3134C213.661 55.6865 213.949 56.2343 214.137 57.1184C214.327 58.0141 214.4 59.1858 214.4 60.7396H216.178ZM200.914 64.112V58.3435H199.136V64.112H200.914ZM200.025 59.2324H206V57.4546H200.025V59.2324ZM206 59.2324C206.634 59.2324 207.08 59.264 207.402 59.3296C207.717 59.3938 207.845 59.4776 207.905 59.5342C207.96 59.5858 208.036 59.6871 208.095 59.9499C208.158 60.2266 208.188 60.6161 208.188 61.1834H209.966C209.966 60.5822 209.937 60.0324 209.829 59.5575C209.719 59.0687 209.513 58.6062 209.124 58.2399C208.74 57.8786 208.262 57.6906 207.757 57.5876C207.257 57.4858 206.668 57.4546 206 57.4546V59.2324ZM208.188 61.1834C208.188 61.7738 208.158 62.1822 208.094 62.4741C208.033 62.7538 207.954 62.8634 207.897 62.9182C207.837 62.9762 207.711 63.0604 207.399 63.1251C207.079 63.1914 206.634 63.2231 206 63.2231V65.001C206.668 65.001 207.258 64.9698 207.76 64.866C208.268 64.7606 208.749 64.5675 209.133 64.1965C209.52 63.8224 209.722 63.3514 209.83 62.8546C209.937 62.3699 209.966 61.8059 209.966 61.1834H208.188ZM206 63.2231H200.025V65.001H206V63.2231ZM223.114 76.3887H222.225V77.2776H223.114V76.3887ZM229.326 76.3887V77.2776H230.215V76.3887H229.326ZM229.326 58.3435V57.4546H228.437V58.3435H229.326ZM236.455 58.3435V59.2324H237.344V58.3435H236.455ZM236.455 53.3145H237.344V52.4256H236.455V53.3145ZM216.044 53.3145V52.4256H215.155V53.3145H216.044ZM216.044 58.3435H215.155V59.2324H216.044V58.3435ZM223.114 58.3435H224.003V57.4546H223.114V58.3435ZM223.114 77.2776H229.326V75.4997H223.114V77.2776ZM230.215 76.3887V58.3435H228.437V76.3887H230.215ZM229.326 59.2324H236.455V57.4546H229.326V59.2324ZM237.344 58.3435V53.3145H235.567V58.3435H237.344ZM236.455 52.4256H216.044V54.2034H236.455V52.4256ZM215.155 53.3145V58.3435H216.933V53.3145H215.155ZM216.044 59.2324H223.114V57.4546H216.044V59.2324ZM222.225 58.3435V76.3887H224.003V58.3435H222.225Z" fill="white"/>
</svg>
