<svg width="343" height="193" viewBox="0 0 343 193" fill="none" xmlns="http://www.w3.org/2000/svg">
<path d="M82.9179 2.88H58.9979L43.6059 33.04H42.9819L27.9019 2.88H2.94188L32.2699 55.088V84H54.1099V55.088L82.9179 2.88ZM124.593 19.312C142.585 19.312 145.913 23.056 145.913 43.44C145.913 63.824 142.585 67.568 124.593 67.568C106.601 67.568 103.273 63.824 103.273 43.44C103.273 23.056 106.601 19.312 124.593 19.312ZM80.3934 43.44C80.3934 78.696 87.3614 85.248 124.593 85.248C161.825 85.248 168.793 78.696 168.793 43.44C168.793 8.184 161.825 1.63199 124.593 1.63199C87.3614 1.63199 80.3934 8.184 80.3934 43.44ZM248.058 50.72V2.88H226.218V50.72C226.218 64.968 224.034 67.568 212.074 67.568C200.114 67.568 197.93 64.968 197.93 50.72V2.88H176.09V50.72C176.09 79.84 181.706 85.248 212.074 85.248C242.442 85.248 248.058 79.84 248.058 50.72ZM304.89 2.88H256.426V84H278.266V57.48H299.69C306.658 57.48 308.842 59.768 308.842 68.92C308.842 76.2 309.258 80.568 311.026 84H334.946V83.064C331.618 79.32 330.786 72.248 330.786 64.032C330.786 54.152 326.106 50.928 316.954 48.848C327.978 46.352 331.93 41.776 331.93 32.104V28.984C331.93 6.93599 327.874 2.88 304.89 2.88ZM278.266 40.84V20.56H299.274C308.426 20.56 310.09 22.328 310.09 30.544C310.09 39.072 308.426 40.84 299.274 40.84H278.266Z" fill="white"/>
<path d="M82.9179 2.88L84.2312 3.60468L85.4588 1.38H82.9179V2.88ZM58.9979 2.88V1.38H58.0793L57.6618 2.19814L58.9979 2.88ZM43.6059 33.04V34.54H44.5244L44.9419 33.7219L43.6059 33.04ZM42.9819 33.04L41.6402 33.7108L42.0548 34.54H42.9819V33.04ZM27.9019 2.88L29.2435 2.20918L28.8289 1.38H27.9019V2.88ZM2.94187 2.88V1.38H0.378773L1.63409 3.61465L2.94187 2.88ZM32.2699 55.088H33.7699V54.6955L33.5777 54.3533L32.2699 55.088ZM32.2699 84H30.7699V85.5H32.2699V84ZM54.1099 84V85.5H55.6099V84H54.1099ZM54.1099 55.088L52.7965 54.3633L52.6099 54.7016V55.088H54.1099ZM82.9179 1.38H58.9979V4.38H82.9179V1.38ZM57.6618 2.19814L42.2698 32.3581L44.9419 33.7219L60.3339 3.56185L57.6618 2.19814ZM43.6059 31.54H42.9819V34.54H43.6059V31.54ZM44.3235 32.3692L29.2435 2.20918L26.5602 3.55082L41.6402 33.7108L44.3235 32.3692ZM27.9019 1.38H2.94187V4.38H27.9019V1.38ZM1.63409 3.61465L30.9621 55.8226L33.5777 54.3533L4.24966 2.14535L1.63409 3.61465ZM30.7699 55.088V84H33.7699V55.088H30.7699ZM32.2699 85.5H54.1099V82.5H32.2699V85.5ZM55.6099 84V55.088H52.6099V84H55.6099ZM55.4232 55.8127L84.2312 3.60468L81.6046 2.15531L52.7965 54.3633L55.4232 55.8127ZM124.593 20.812C129.063 20.812 132.503 21.0471 135.171 21.6755C137.811 22.2973 139.6 23.2822 140.877 24.7257C142.169 26.1867 143.071 28.2701 143.637 31.3424C144.205 34.421 144.413 38.3656 144.413 43.44H147.413C147.413 38.3224 147.206 34.155 146.587 30.7986C145.968 27.4359 144.913 24.7613 143.124 22.7383C141.32 20.6978 138.904 19.4727 135.859 18.7555C132.843 18.0449 129.12 17.812 124.593 17.812V20.812ZM144.413 43.44C144.413 48.5144 144.205 52.459 143.637 55.5376C143.071 58.6099 142.169 60.6933 140.877 62.1543C139.6 63.5978 137.811 64.5827 135.171 65.2045C132.503 65.8329 129.063 66.068 124.593 66.068V69.068C129.12 69.068 132.843 68.8351 135.859 68.1245C138.904 67.4073 141.32 66.1822 143.124 64.1417C144.913 62.1187 145.968 59.4441 146.587 56.0814C147.206 52.725 147.413 48.5576 147.413 43.44H144.413ZM124.593 66.068C120.124 66.068 116.684 65.8329 114.016 65.2045C111.376 64.5827 109.587 63.5978 108.31 62.1543C107.018 60.6933 106.116 58.6099 105.55 55.5376C104.982 52.459 104.773 48.5144 104.773 43.44H101.773C101.773 48.5576 101.981 52.725 102.599 56.0814C103.219 59.4441 104.274 62.1187 106.063 64.1417C107.867 66.1822 110.283 67.4073 113.328 68.1245C116.344 68.8351 120.067 69.068 124.593 69.068V66.068ZM104.773 43.44C104.773 38.3656 104.982 34.421 105.55 31.3424C106.116 28.2701 107.018 26.1867 108.31 24.7257C109.587 23.2822 111.376 22.2973 114.016 21.6755C116.684 21.0471 120.124 20.812 124.593 20.812V17.812C120.067 17.812 116.344 18.0449 113.328 18.7555C110.283 19.4727 107.867 20.6978 106.063 22.7383C104.274 24.7613 103.219 27.4359 102.599 30.7986C101.981 34.155 101.773 38.3224 101.773 43.44H104.773ZM78.8934 43.44C78.8934 52.2812 79.328 59.4341 80.5995 65.1707C81.8758 70.9291 84.0173 75.3626 87.5011 78.6552C90.9771 81.9404 95.6398 83.9481 101.689 85.1449C107.726 86.3393 115.262 86.748 124.593 86.748V83.748C115.309 83.748 108.012 83.3377 102.271 82.2019C96.542 81.0684 92.4818 79.2346 89.5618 76.4748C86.6495 73.7224 84.7221 69.9074 83.5284 64.5215C82.3298 59.1139 81.8934 52.2268 81.8934 43.44H78.8934ZM124.593 86.748C133.925 86.748 141.461 86.3393 147.498 85.1449C153.547 83.9481 158.21 81.9404 161.686 78.6552C165.17 75.3626 167.311 70.9291 168.587 65.1707C169.859 59.4341 170.293 52.2812 170.293 43.44H167.293C167.293 52.2268 166.857 59.1139 165.658 64.5215C164.465 69.9074 162.537 73.7224 159.625 76.4748C156.705 79.2346 152.645 81.0684 146.916 82.2019C141.175 83.3377 133.878 83.748 124.593 83.748V86.748ZM170.293 43.44C170.293 34.5988 169.859 27.4459 168.587 21.7093C167.311 15.9509 165.17 11.5174 161.686 8.22484C158.21 4.93963 153.547 2.93192 147.498 1.73514C141.461 0.540689 133.925 0.131994 124.593 0.131994V3.13199C133.878 3.13199 141.175 3.5423 146.916 4.6781C152.645 5.81157 156.705 7.64536 159.625 10.4051C162.537 13.1576 164.465 16.9726 165.658 22.3585C166.857 27.7661 167.293 34.6532 167.293 43.44H170.293ZM124.593 0.131994C115.262 0.131994 107.726 0.540689 101.689 1.73514C95.6398 2.93192 90.9771 4.93963 87.5011 8.22484C84.0173 11.5174 81.8758 15.9509 80.5995 21.7093C79.328 27.4459 78.8934 34.5988 78.8934 43.44H81.8934C81.8934 34.6532 82.3298 27.7661 83.5284 22.3585C84.7221 16.9726 86.6495 13.1576 89.5618 10.4051C92.4818 7.64536 96.542 5.81157 102.271 4.6781C108.012 3.5423 115.309 3.13199 124.593 3.13199V0.131994ZM248.058 2.88H249.558V1.38H248.058V2.88ZM226.218 2.88V1.38H224.718V2.88H226.218ZM197.93 2.88H199.43V1.38H197.93V2.88ZM176.09 2.88V1.38H174.59V2.88H176.09ZM249.558 50.72V2.88H246.558V50.72H249.558ZM248.058 1.38H226.218V4.38H248.058V1.38ZM224.718 2.88V50.72H227.718V2.88H224.718ZM224.718 50.72C224.718 54.2621 224.58 56.9905 224.212 59.1059C223.844 61.2188 223.266 62.5891 222.482 63.5225C220.942 65.3564 218.124 66.068 212.074 66.068V69.068C217.983 69.068 222.237 68.4796 224.779 65.4515C226.037 63.9539 226.752 62.0027 227.167 59.6209C227.582 57.2415 227.718 54.3019 227.718 50.72H224.718ZM212.074 66.068C206.023 66.068 203.205 65.3564 201.665 63.5225C200.882 62.5891 200.304 61.2188 199.936 59.1059C199.567 56.9905 199.43 54.2621 199.43 50.72H196.43C196.43 54.3019 196.565 57.2415 196.98 59.6209C197.395 62.0027 198.111 63.9539 199.368 65.4515C201.91 68.4796 206.164 69.068 212.074 69.068V66.068ZM199.43 50.72V2.88H196.43V50.72H199.43ZM197.93 1.38H176.09V4.38H197.93V1.38ZM174.59 2.88V50.72H177.59V2.88H174.59ZM174.59 50.72C174.59 58.0262 174.94 63.9549 175.976 68.7188C177.017 73.5031 178.772 77.2181 181.655 79.9861C184.533 82.7486 188.385 84.424 193.345 85.4187C198.292 86.4108 204.458 86.748 212.074 86.748V83.748C204.506 83.748 198.581 83.4092 193.935 82.4773C189.301 81.548 186.055 80.0514 183.732 77.8219C181.416 75.5979 179.869 72.5009 178.907 68.0812C177.942 63.6411 177.59 57.9738 177.59 50.72H174.59ZM212.074 86.748C219.69 86.748 225.855 86.4108 230.803 85.4187C235.763 84.424 239.615 82.7486 242.492 79.9861C245.376 77.2181 247.131 73.5031 248.171 68.7188C249.208 63.9549 249.558 58.0262 249.558 50.72H246.558C246.558 57.9738 246.206 63.6411 245.24 68.0812C244.279 72.5009 242.732 75.5979 240.415 77.8219C238.093 80.0514 234.847 81.548 230.213 82.4773C225.566 83.4092 219.642 83.748 212.074 83.748V86.748ZM256.426 2.88V1.38H254.926V2.88H256.426ZM256.426 84H254.926V85.5H256.426V84ZM278.266 84V85.5H279.766V84H278.266ZM278.266 57.48V55.98H276.766V57.48H278.266ZM311.026 84L309.692 84.6869L310.111 85.5H311.026V84ZM334.946 84V85.5H336.446V84H334.946ZM334.946 83.064H336.446V82.4937L336.067 82.0675L334.946 83.064ZM316.954 48.848L316.622 47.385L316.621 50.3107L316.954 48.848ZM278.266 40.84H276.766V42.34H278.266V40.84ZM278.266 20.56V19.06H276.766V20.56H278.266ZM304.89 1.38H256.426V4.38H304.89V1.38ZM254.926 2.88V84H257.926V2.88H254.926ZM256.426 85.5H278.266V82.5H256.426V85.5ZM279.766 84V57.48H276.766V84H279.766ZM278.266 58.98H299.69V55.98H278.266V58.98ZM299.69 58.98C303.101 58.98 304.764 59.563 305.722 60.7231C306.766 61.987 307.342 64.3405 307.342 68.92H310.342C310.342 64.3475 309.826 60.981 308.035 58.8129C306.159 56.5409 303.246 55.98 299.69 55.98V58.98ZM307.342 68.92C307.342 76.1767 307.737 80.8924 309.692 84.6869L312.359 83.3131C310.778 80.2436 310.342 76.2233 310.342 68.92H307.342ZM311.026 85.5H334.946V82.5H311.026V85.5ZM336.446 84V83.064H333.446V84H336.446ZM336.067 82.0675C334.661 80.4865 333.692 78.0886 333.091 74.9433C332.493 71.8164 332.286 68.1031 332.286 64.032H329.286C329.286 68.1769 329.494 72.1076 330.144 75.5067C330.791 78.8874 331.902 81.8975 333.825 84.0605L336.067 82.0675ZM332.286 64.032C332.286 58.8537 331.053 55.1301 328.359 52.4514C325.73 49.8373 321.916 48.4376 317.286 47.3853L316.621 50.3107C321.143 51.3384 324.245 52.5907 326.244 54.5786C328.178 56.5019 329.286 59.3303 329.286 64.032H332.286ZM317.285 50.311C322.913 49.0368 327.023 47.175 329.697 44.1629C332.402 41.1161 333.43 37.1324 333.43 32.104H330.43C330.43 36.7476 329.481 39.8879 327.454 42.1711C325.396 44.489 322.019 46.1632 316.622 47.385L317.285 50.311ZM333.43 32.104V28.984H330.43V32.104H333.43ZM333.43 28.984C333.43 23.4483 333.177 18.9322 332.404 15.2921C331.627 11.6324 330.3 8.74736 328.073 6.58725C325.85 4.43161 322.882 3.14522 319.106 2.38755C315.343 1.63258 310.659 1.38 304.89 1.38V4.38C310.612 4.38 315.054 4.63441 318.516 5.32894C321.964 6.02078 324.32 7.12638 325.984 8.74074C327.644 10.3506 328.768 12.6136 329.469 15.9154C330.175 19.2368 330.43 23.4957 330.43 28.984H333.43ZM279.766 40.84V20.56H276.766V40.84H279.766ZM278.266 22.06H299.274V19.06H278.266V22.06ZM299.274 22.06C301.532 22.06 303.232 22.1708 304.525 22.4344C305.807 22.6958 306.578 23.0856 307.085 23.563C307.583 24.032 307.968 24.7185 308.224 25.849C308.485 27.0029 308.59 28.5186 308.59 30.544H311.59C311.59 28.4614 311.486 26.6751 311.15 25.1868C310.807 23.675 310.204 22.379 309.142 21.379C308.089 20.3874 306.728 19.8217 305.124 19.4948C303.531 19.1702 301.591 19.06 299.274 19.06V22.06ZM308.59 30.544C308.59 32.6489 308.485 34.2271 308.221 35.4295C307.963 36.6113 307.573 37.3268 307.071 37.8115C306.564 38.3014 305.797 38.6971 304.52 38.9617C303.23 39.229 301.533 39.34 299.274 39.34V42.34C301.59 42.34 303.533 42.23 305.129 41.8993C306.738 41.5659 308.103 40.9866 309.156 39.9685C310.215 38.9452 310.813 37.6197 311.152 36.0715C311.487 34.5439 311.59 32.7031 311.59 30.544H308.59ZM299.274 39.34H278.266V42.34H299.274V39.34ZM88.3702 155.576L89.8701 155.566L89.8598 154.076H88.3702V155.576ZM65.4902 155.576V154.076H63.9695L63.9903 155.597L65.4902 155.576ZM65.4902 143.2L63.9903 143.179L63.9693 144.7H65.4902V143.2ZM88.3702 143.2V144.7H89.8598L89.8701 143.21L88.3702 143.2ZM88.3702 154.076H65.4902V157.076H88.3702V154.076ZM63.9903 155.597C64.0419 159.363 63.8764 162.241 63.3725 164.461C62.8754 166.651 62.0703 168.107 60.8975 169.141C59.7047 170.191 57.977 170.942 55.3781 171.416C52.7745 171.892 49.4268 172.068 45.1062 172.068V175.068C49.4695 175.068 53.0378 174.893 55.9169 174.368C58.8008 173.841 61.1226 172.941 62.8808 171.391C64.659 169.825 65.7064 167.732 66.2981 165.125C66.8829 162.548 67.0424 159.381 66.99 155.555L63.9903 155.597ZM45.1062 172.068C36.2974 172.068 31.8327 171.07 29.3444 168.171C28.091 166.711 27.2139 164.624 26.6635 161.546C26.1124 158.463 25.9102 154.515 25.9102 149.44H22.9102C22.9102 154.557 23.1109 158.721 23.7103 162.074C24.3104 165.43 25.3314 168.101 27.0679 170.125C30.5597 174.194 36.4429 175.068 45.1062 175.068V172.068ZM25.9102 149.44C25.9102 144.365 26.1124 140.417 26.6635 137.334C27.2139 134.256 28.091 132.169 29.3444 130.709C31.8327 127.81 36.2974 126.812 45.1062 126.812V123.812C36.4429 123.812 30.5597 124.686 27.0679 128.755C25.3314 130.779 24.3104 133.45 23.7103 136.807C23.1109 140.159 22.9102 144.323 22.9102 149.44H25.9102ZM45.1062 126.812C49.4267 126.812 52.7748 126.988 55.379 127.462C57.9787 127.935 59.7074 128.683 60.9003 129.729C62.0726 130.757 62.8765 132.203 63.3729 134.377C63.8763 136.582 64.0419 139.439 63.9903 143.179L66.99 143.221C67.0424 139.421 66.883 136.272 66.2976 133.709C65.7053 131.115 64.6568 129.032 62.878 127.473C61.12 125.932 58.7991 125.035 55.9161 124.511C53.0375 123.987 49.4697 123.812 45.1062 123.812V126.812ZM65.4902 144.7H88.3702V141.7H65.4902V144.7ZM89.8701 143.21C89.9737 128.296 88.4007 118.677 81.5366 113.026C78.1285 110.22 73.5606 108.516 67.6371 107.499C61.7142 106.482 54.3045 106.132 45.1062 106.132V109.132C54.2638 109.132 61.4661 109.484 67.1295 110.456C72.7922 111.428 76.7849 113 79.6298 115.342C85.2717 119.987 86.9746 128.152 86.8702 143.19L89.8701 143.21ZM45.1062 106.132C35.904 106.132 28.4707 106.541 22.5144 107.736C16.5451 108.934 11.9429 110.944 8.51306 114.232C5.07748 117.526 2.96788 121.959 1.71083 127.714C0.458255 133.448 0.0301564 140.599 0.0301564 149.44H3.03016C3.03016 140.653 3.46006 133.764 4.64173 128.354C5.81894 122.965 7.71984 119.149 10.5893 116.398C13.4645 113.641 17.4617 111.81 23.1047 110.677C28.7606 109.542 35.9523 109.132 45.1062 109.132V106.132ZM0.0301564 149.44C0.0301564 158.281 0.458255 165.432 1.71083 171.166C2.96788 176.921 5.07748 181.354 8.51306 184.648C11.9429 187.936 16.5451 189.946 22.5144 191.144C28.4707 192.339 35.904 192.748 45.1062 192.748V189.748C35.9523 189.748 28.7606 189.338 23.1047 188.203C17.4617 187.07 13.4645 185.239 10.5893 182.482C7.71984 179.731 5.81894 175.915 4.64173 170.526C3.46006 165.116 3.03016 158.227 3.03016 149.44H0.0301564ZM45.1062 192.748C54.3045 192.748 61.7144 192.398 67.6375 191.379C73.5614 190.361 78.1297 188.653 81.538 185.84C88.4009 180.175 89.9737 170.531 89.8701 155.566L86.8702 155.586C86.9746 170.677 85.2714 178.869 79.6283 183.526C76.7836 185.874 72.7914 187.449 67.1291 188.423C61.466 189.396 54.2639 189.748 45.1062 189.748V192.748ZM155.297 108.88L156.717 108.396L156.371 107.38H155.297V108.88ZM119.937 108.88V107.38H118.868L118.519 108.391L119.937 108.88ZM91.9614 190L90.5434 189.511L89.8574 191.5H91.9614V190ZM115.881 190V191.5H117.016L117.325 190.408L115.881 190ZM120.353 174.192V172.692H119.219L118.91 173.784L120.353 174.192ZM152.905 174.192L154.333 173.732L153.998 172.692H152.905V174.192ZM158.001 190L156.574 190.46L156.909 191.5H158.001V190ZM182.961 190V191.5H185.058L184.381 189.516L182.961 190ZM125.449 156.512L124.041 155.997L123.304 158.012H125.449V156.512ZM136.785 125.52V124.02H135.737L135.377 125.005L136.785 125.52ZM137.617 125.52L139.039 125.043L138.696 124.02H137.617V125.52ZM148.017 156.512V158.012H150.103L149.439 156.035L148.017 156.512ZM155.297 107.38H119.937V110.38H155.297V107.38ZM118.519 108.391L90.5434 189.511L93.3794 190.489L121.355 109.369L118.519 108.391ZM91.9614 191.5H115.881V188.5H91.9614V191.5ZM117.325 190.408L121.797 174.6L118.91 173.784L114.438 189.592L117.325 190.408ZM120.353 175.692H152.905V172.692H120.353V175.692ZM151.478 174.652L156.574 190.46L159.429 189.54L154.333 173.732L151.478 174.652ZM158.001 191.5H182.961V188.5H158.001V191.5ZM184.381 189.516L156.717 108.396L153.878 109.364L181.542 190.484L184.381 189.516ZM126.858 157.027L138.194 126.035L135.377 125.005L124.041 155.997L126.858 157.027ZM136.785 127.02H137.617V124.02H136.785V127.02ZM136.195 125.997L146.595 156.989L149.439 156.035L139.039 125.043L136.195 125.997ZM148.017 155.012H125.449V158.012H148.017V155.012ZM187.617 108.88V107.38H186.117V108.88H187.617ZM187.617 190H186.117V191.5H187.617V190ZM209.457 190V191.5H210.957V190H209.457ZM209.457 163.48V161.98H207.957V163.48H209.457ZM242.217 190L240.884 190.687L241.302 191.5H242.217V190ZM266.137 190V191.5H267.637V190H266.137ZM266.137 189.064H267.637V188.494L267.258 188.067L266.137 189.064ZM248.145 154.848L247.814 153.385L247.813 156.311L248.145 154.848ZM209.457 146.84H207.957V148.34H209.457V146.84ZM209.457 126.56V125.06H207.957V126.56H209.457ZM236.081 107.38H187.617V110.38H236.081V107.38ZM186.117 108.88V190H189.117V108.88H186.117ZM187.617 191.5H209.457V188.5H187.617V191.5ZM210.957 190V163.48H207.957V190H210.957ZM209.457 164.98H230.881V161.98H209.457V164.98ZM230.881 164.98C234.292 164.98 235.955 165.563 236.913 166.723C237.957 167.987 238.533 170.34 238.533 174.92H241.533C241.533 170.348 241.017 166.981 239.227 164.813C237.351 162.541 234.438 161.98 230.881 161.98V164.98ZM238.533 174.92C238.533 182.177 238.929 186.892 240.884 190.687L243.55 189.313C241.969 186.244 241.533 182.223 241.533 174.92H238.533ZM242.217 191.5H266.137V188.5H242.217V191.5ZM267.637 190V189.064H264.637V190H267.637ZM267.258 188.067C265.853 186.486 264.884 184.089 264.282 180.943C263.684 177.816 263.477 174.103 263.477 170.032H260.477C260.477 174.177 260.686 178.108 261.336 181.507C261.982 184.887 263.093 187.898 265.016 190.061L267.258 188.067ZM263.477 170.032C263.477 164.854 262.245 161.13 259.551 158.451C256.922 155.837 253.108 154.438 248.477 153.385L247.813 156.311C252.334 157.338 255.436 158.591 257.435 160.579C259.37 162.502 260.477 165.33 260.477 170.032H263.477ZM248.476 156.311C254.104 155.037 258.215 153.175 260.889 150.163C263.594 147.116 264.621 143.132 264.621 138.104H261.621C261.621 142.748 260.672 145.888 258.645 148.171C256.587 150.489 253.21 152.163 247.814 153.385L248.476 156.311ZM264.621 138.104V134.984H261.621V138.104H264.621ZM264.621 134.984C264.621 129.448 264.369 124.932 263.595 121.292C262.818 117.632 261.492 114.747 259.264 112.587C257.042 110.432 254.074 109.145 250.297 108.388C246.534 107.633 241.85 107.38 236.081 107.38V110.38C241.804 110.38 246.246 110.634 249.707 111.329C253.156 112.021 255.511 113.126 257.176 114.741C258.836 116.351 259.96 118.614 260.661 121.915C261.366 125.237 261.621 129.496 261.621 134.984H264.621ZM210.957 146.84V126.56H207.957V146.84H210.957ZM209.457 128.06H230.465V125.06H209.457V128.06ZM230.465 128.06C232.724 128.06 234.423 128.171 235.716 128.434C236.999 128.696 237.77 129.086 238.277 129.563C238.775 130.032 239.159 130.718 239.415 131.849C239.676 133.003 239.781 134.519 239.781 136.544H242.781C242.781 134.461 242.678 132.675 242.341 131.187C241.999 129.675 241.395 128.379 240.333 127.379C239.28 126.387 237.919 125.822 236.316 125.495C234.723 125.17 232.782 125.06 230.465 125.06V128.06ZM239.781 136.544C239.781 138.649 239.676 140.227 239.413 141.43C239.154 142.611 238.764 143.327 238.262 143.812C237.756 144.301 236.989 144.697 235.712 144.962C234.422 145.229 232.724 145.34 230.465 145.34V148.34C232.782 148.34 234.724 148.23 236.32 147.899C237.929 147.566 239.294 146.987 240.348 145.968C241.406 144.945 242.004 143.62 242.343 142.071C242.678 140.544 242.781 138.703 242.781 136.544H239.781ZM230.465 145.34H209.457V148.34H230.465V145.34ZM294.146 190H292.646V191.5H294.146V190ZM315.986 190V191.5H317.486V190H315.986ZM315.986 126.56V125.06H314.486V126.56H315.986ZM341.05 126.56V128.06H342.55V126.56H341.05ZM341.05 108.88H342.55V107.38H341.05V108.88ZM269.29 108.88V107.38H267.79V108.88H269.29ZM269.29 126.56H267.79V128.06H269.29V126.56ZM294.146 126.56H295.646V125.06H294.146V126.56ZM294.146 191.5H315.986V188.5H294.146V191.5ZM317.486 190V126.56H314.486V190H317.486ZM315.986 128.06H341.05V125.06H315.986V128.06ZM342.55 126.56V108.88H339.55V126.56H342.55ZM341.05 107.38H269.29V110.38H341.05V107.38ZM267.79 108.88V126.56H270.79V108.88H267.79ZM269.29 128.06H294.146V125.06H269.29V128.06ZM292.646 126.56V190H295.646V126.56H292.646Z" fill="white"/>
</svg>
