<svg width="236" height="31" viewBox="0 0 236 31" fill="none" xmlns="http://www.w3.org/2000/svg">
<path d="M30.9801 17.415L31.9801 17.4081L31.9732 16.415H30.9801V17.415ZM23.2801 17.415V16.415H22.2663L22.2802 17.4287L23.2801 17.415ZM23.2801 13.25L22.2802 13.2362L22.2662 14.25H23.2801V13.25ZM30.9801 13.25V14.25H31.9732L31.9801 13.2569L30.9801 13.25ZM30.9801 16.415H23.2801V18.415H30.9801V16.415ZM22.2802 17.4287C22.2974 18.6864 22.2407 19.6073 22.0845 20.2955C21.9328 20.9638 21.7019 21.3488 21.4071 21.6084C21.099 21.8799 20.6156 22.1077 19.7881 22.2588C18.9573 22.4104 17.8671 22.47 16.4201 22.47V24.47C17.8956 24.47 19.1329 24.4114 20.1473 24.2262C21.1649 24.0405 22.0443 23.7126 22.7293 23.1091C23.4277 22.4937 23.8201 21.6844 24.0349 20.7382C24.2451 19.8121 24.2978 18.6986 24.28 17.4013L22.2802 17.4287ZM16.4201 22.47C13.4316 22.47 12.1632 22.1139 11.4914 21.3312C11.1493 20.9326 10.8779 20.3269 10.7009 19.3368C10.5234 18.344 10.4551 17.0511 10.4551 15.35H8.45508C8.45508 17.0789 8.5224 18.516 8.73209 19.6888C8.94227 20.8644 9.30959 21.8599 9.97372 22.6338C11.3145 24.1961 13.5286 24.47 16.4201 24.47V22.47ZM10.4551 15.35C10.4551 13.6489 10.5234 12.356 10.7009 11.3632C10.8779 10.3731 11.1493 9.7674 11.4914 9.36876C12.1632 8.58605 13.4316 8.23 16.4201 8.23V6.23C13.5286 6.23 11.3145 6.50394 9.97372 8.06624C9.30959 8.8401 8.94227 9.83563 8.73209 11.0112C8.5224 12.184 8.45508 13.6211 8.45508 15.35H10.4551ZM16.4201 8.23C17.867 8.23 18.9575 8.28955 19.7886 8.44079C20.6168 8.5915 21.1008 8.81863 21.409 9.08883C21.7034 9.34689 21.9335 9.72871 22.0848 10.391C22.2407 11.0737 22.2974 11.9874 22.2802 13.2362L24.28 13.2638C24.2978 11.9751 24.2451 10.8676 24.0346 9.94573C23.8194 9.00348 23.4262 8.19748 22.7274 7.58491C22.0425 6.9845 21.1637 6.65818 20.1467 6.47311C19.1327 6.28858 17.8957 6.23 16.4201 6.23V8.23ZM23.2801 14.25H30.9801V12.25H23.2801V14.25ZM31.9801 13.2569C32.0148 8.25822 31.5068 4.78089 28.9951 2.71298C27.7551 1.69217 26.1229 1.09684 24.0864 0.747228C22.0503 0.397691 19.5224 0.279998 16.4201 0.279998V2.28C19.4953 2.28 21.8849 2.39855 23.748 2.71839C25.6106 3.03815 26.8594 3.54532 27.7239 4.25702C29.4208 5.65411 30.0154 8.16178 29.9801 13.2431L31.9801 13.2569ZM16.4201 0.279998C13.3152 0.279998 10.7738 0.417263 8.71966 0.829466C6.65691 1.2434 5.00819 1.94936 3.76239 3.14379C2.51273 4.34192 1.76832 5.93555 1.3321 7.93262C0.898852 9.91606 0.755078 12.3659 0.755078 15.35H2.75508C2.75508 12.4016 2.90005 10.1264 3.28603 8.35941C3.66903 6.60601 4.2743 5.42371 5.14652 4.58746C6.02259 3.74751 7.26793 3.16066 9.11316 2.79037C10.967 2.41836 13.3474 2.28 16.4201 2.28V0.279998ZM0.755078 15.35C0.755078 18.3341 0.898852 20.7839 1.3321 22.7674C1.76832 24.7644 2.51273 26.3581 3.76239 27.5562C5.00819 28.7506 6.65691 29.4566 8.71966 29.8705C10.7738 30.2827 13.3152 30.42 16.4201 30.42V28.42C13.3474 28.42 10.967 28.2816 9.11316 27.9096C7.26793 27.5393 6.02259 26.9525 5.14652 26.1125C4.2743 25.2763 3.66903 24.094 3.28603 22.3406C2.90005 20.5736 2.75508 18.2984 2.75508 15.35H0.755078ZM16.4201 30.42C19.5224 30.42 22.0504 30.3023 24.0867 29.9522C26.1235 29.6019 27.756 29.0053 28.996 27.9819C31.507 25.9094 32.0148 22.4236 31.9801 17.4081L29.9801 17.4219C30.0154 22.5214 29.4207 25.0381 27.7229 26.4394C26.8585 27.1528 25.6101 27.6609 23.7477 27.9811C21.8848 28.3014 19.4953 28.42 16.4201 28.42V30.42ZM34.4137 29H33.4137V30H34.4137V29ZM41.7637 29V30H42.7637V29H41.7637ZM41.7637 18.22V17.22H40.7637V18.22H41.7637ZM52.9637 18.22H53.9637V17.22H52.9637V18.22ZM52.9637 29H51.9637V30H52.9637V29ZM60.3137 29V30H61.3137V29H60.3137ZM60.3137 1.7H61.3137V0.699999H60.3137V1.7ZM52.9637 1.7V0.699999H51.9637V1.7H52.9637ZM52.9637 11.92V12.92H53.9637V11.92H52.9637ZM41.7637 11.92H40.7637V12.92H41.7637V11.92ZM41.7637 1.7H42.7637V0.699999H41.7637V1.7ZM34.4137 1.7V0.699999H33.4137V1.7H34.4137ZM34.4137 30H41.7637V28H34.4137V30ZM42.7637 29V18.22H40.7637V29H42.7637ZM41.7637 19.22H52.9637V17.22H41.7637V19.22ZM51.9637 18.22V29H53.9637V18.22H51.9637ZM52.9637 30H60.3137V28H52.9637V30ZM61.3137 29V1.7H59.3137V29H61.3137ZM60.3137 0.699999H52.9637V2.7H60.3137V0.699999ZM51.9637 1.7V11.92H53.9637V1.7H51.9637ZM52.9637 10.92H41.7637V12.92H52.9637V10.92ZM42.7637 11.92V1.7H40.7637V11.92H42.7637ZM41.7637 0.699999H34.4137V2.7H41.7637V0.699999ZM33.4137 1.7V29H35.4137V1.7H33.4137ZM64.1246 1.7V0.699999H63.1246V1.7H64.1246ZM64.1246 29H63.1246V30H64.1246V29ZM86.4896 29V30H87.4896V29H86.4896ZM86.4896 22.7H87.4896V21.7H86.4896V22.7ZM71.4746 22.7H70.4746V23.7H71.4746V22.7ZM71.4746 18.15V17.15H70.4746V18.15H71.4746ZM84.7046 18.15V19.15H85.7046V18.15H84.7046ZM84.7046 12.2H85.7046V11.2H84.7046V12.2ZM71.4746 12.2H70.4746V13.2H71.4746V12.2ZM71.4746 8V7H70.4746V8H71.4746ZM86.4896 8V9H87.4896V8H86.4896ZM86.4896 1.7H87.4896V0.699999H86.4896V1.7ZM63.1246 1.7V29H65.1246V1.7H63.1246ZM64.1246 30H86.4896V28H64.1246V30ZM87.4896 29V22.7H85.4896V29H87.4896ZM86.4896 21.7H71.4746V23.7H86.4896V21.7ZM72.4746 22.7V18.15H70.4746V22.7H72.4746ZM71.4746 19.15H84.7046V17.15H71.4746V19.15ZM85.7046 18.15V12.2H83.7046V18.15H85.7046ZM84.7046 11.2H71.4746V13.2H84.7046V11.2ZM72.4746 12.2V8H70.4746V12.2H72.4746ZM71.4746 9H86.4896V7H71.4746V9ZM87.4896 8V1.7H85.4896V8H87.4896ZM86.4896 0.699999H64.1246V2.7H86.4896V0.699999ZM119.156 17.415L120.156 17.4081L120.149 16.415H119.156V17.415ZM111.456 17.415V16.415H110.442L110.456 17.4287L111.456 17.415ZM111.456 13.25L110.456 13.2362L110.442 14.25H111.456V13.25ZM119.156 13.25V14.25H120.149L120.156 13.2569L119.156 13.25ZM119.156 16.415H111.456V18.415H119.156V16.415ZM110.456 17.4287C110.473 18.6864 110.416 19.6073 110.26 20.2955C110.109 20.9638 109.878 21.3488 109.583 21.6084C109.275 21.8799 108.791 22.1077 107.964 22.2588C107.133 22.4104 106.043 22.47 104.596 22.47V24.47C106.071 24.47 107.309 24.4114 108.323 24.2262C109.341 24.0405 110.22 23.7126 110.905 23.1091C111.603 22.4937 111.996 21.6844 112.211 20.7382C112.421 19.8121 112.474 18.6986 112.456 17.4013L110.456 17.4287ZM104.596 22.47C101.607 22.47 100.339 22.1139 99.6672 21.3312C99.3251 20.9326 99.0537 20.3269 98.8767 19.3368C98.6992 18.344 98.6309 17.0511 98.6309 15.35H96.6309C96.6309 17.0789 96.6982 18.516 96.9079 19.6888C97.118 20.8644 97.4854 21.8599 98.1495 22.6338C99.4903 24.1961 101.704 24.47 104.596 24.47V22.47ZM98.6309 15.35C98.6309 13.6489 98.6992 12.356 98.8767 11.3632C99.0537 10.3731 99.3251 9.7674 99.6672 9.36876C100.339 8.58605 101.607 8.23 104.596 8.23V6.23C101.704 6.23 99.4903 6.50394 98.1495 8.06624C97.4854 8.8401 97.118 9.83563 96.9079 11.0112C96.6982 12.184 96.6309 13.6211 96.6309 15.35H98.6309ZM104.596 8.23C106.043 8.23 107.133 8.28955 107.964 8.44079C108.793 8.5915 109.277 8.81863 109.585 9.08883C109.879 9.34689 110.109 9.72871 110.261 10.391C110.416 11.0737 110.473 11.9874 110.456 13.2362L112.456 13.2638C112.474 11.9751 112.421 10.8676 112.21 9.94573C111.995 9.00348 111.602 8.19748 110.903 7.58491C110.218 6.9845 109.339 6.65818 108.322 6.47311C107.308 6.28858 106.071 6.23 104.596 6.23V8.23ZM111.456 14.25H119.156V12.25H111.456V14.25ZM120.156 13.2569C120.191 8.25822 119.683 4.78089 117.171 2.71298C115.931 1.69217 114.299 1.09684 112.262 0.747228C110.226 0.397691 107.698 0.279998 104.596 0.279998V2.28C107.671 2.28 110.061 2.39855 111.924 2.71839C113.786 3.03815 115.035 3.54532 115.9 4.25702C117.597 5.65411 118.191 8.16178 118.156 13.2431L120.156 13.2569ZM104.596 0.279998C101.491 0.279998 98.9496 0.417263 96.8954 0.829466C94.8327 1.2434 93.184 1.94936 91.9382 3.14379C90.6885 4.34192 89.9441 5.93555 89.5079 7.93262C89.0746 9.91606 88.9309 12.3659 88.9309 15.35H90.9309C90.9309 12.4016 91.0758 10.1264 91.4618 8.35941C91.8448 6.60601 92.4501 5.42371 93.3223 4.58746C94.1984 3.74751 95.4437 3.16066 97.2889 2.79037C99.1428 2.41836 101.523 2.28 104.596 2.28V0.279998ZM88.9309 15.35C88.9309 18.3341 89.0746 20.7839 89.5079 22.7674C89.9441 24.7644 90.6885 26.3581 91.9382 27.5562C93.184 28.7506 94.8327 29.4566 96.8954 29.8705C98.9496 30.2827 101.491 30.42 104.596 30.42V28.42C101.523 28.42 99.1428 28.2816 97.2889 27.9096C95.4437 27.5393 94.1984 26.9525 93.3223 26.1125C92.4501 25.2763 91.8448 24.094 91.4618 22.3406C91.0758 20.5736 90.9309 18.2984 90.9309 15.35H88.9309ZM104.596 30.42C107.698 30.42 110.226 30.3023 112.262 29.9522C114.299 29.6019 115.932 29.0053 117.172 27.9819C119.683 25.9094 120.191 22.4236 120.156 17.4081L118.156 17.4219C118.191 22.5214 117.596 25.0381 115.899 26.4394C115.034 27.1528 113.786 27.6609 111.924 27.9811C110.061 28.3014 107.671 28.42 104.596 28.42V30.42ZM122.589 29H121.589V30H122.589V29ZM129.939 29V30H130.939V29H129.939ZM129.939 18.045V17.045H128.939V18.045H129.939ZM133.824 18.045L134.695 17.5528L134.408 17.045H133.824V18.045ZM140.019 29L139.149 29.4922L139.436 30H140.019V29ZM148.419 29V30H150.216L149.269 28.473L148.419 29ZM139.564 14.72L138.727 14.1731L138.379 14.706L138.715 15.247L139.564 14.72ZM148.069 1.7L148.907 2.24688L149.917 0.699999H148.069V1.7ZM140.019 1.7V0.699999H139.471L139.176 1.16236L140.019 1.7ZM133.614 11.745V12.745H134.163L134.458 12.2826L133.614 11.745ZM129.939 11.745H128.939V12.745H129.939V11.745ZM129.939 1.7H130.939V0.699999H129.939V1.7ZM122.589 1.7V0.699999H121.589V1.7H122.589ZM122.589 30H129.939V28H122.589V30ZM130.939 29V18.045H128.939V29H130.939ZM129.939 19.045H133.824V17.045H129.939V19.045ZM132.954 18.5372L139.149 29.4922L140.89 28.5078L134.695 17.5528L132.954 18.5372ZM140.019 30H148.419V28H140.019V30ZM149.269 28.473L140.414 14.193L138.715 15.247L147.57 29.527L149.269 28.473ZM140.402 15.2669L148.907 2.24688L147.232 1.15311L138.727 14.1731L140.402 15.2669ZM148.069 0.699999H140.019V2.7H148.069V0.699999ZM139.176 1.16236L132.771 11.2074L134.458 12.2826L140.863 2.23763L139.176 1.16236ZM133.614 10.745H129.939V12.745H133.614V10.745ZM130.939 11.745V1.7H128.939V11.745H130.939ZM129.939 0.699999H122.589V2.7H129.939V0.699999ZM121.589 1.7V29H123.589V1.7H121.589ZM165.527 8.23C167.021 8.23 168.132 8.30946 168.973 8.50742C169.794 8.7009 170.293 8.9927 170.636 9.37995C170.988 9.77891 171.267 10.3825 171.449 11.3685C171.631 12.3587 171.702 13.6494 171.702 15.35H173.702C173.702 13.6206 173.632 12.1813 173.415 11.0059C173.198 9.82628 172.818 8.82859 172.134 8.05505C171.439 7.2698 170.523 6.81784 169.431 6.5607C168.359 6.30803 167.059 6.23 165.527 6.23V8.23ZM171.702 15.35C171.702 17.0506 171.631 18.3413 171.449 19.3315C171.267 20.3175 170.988 20.9211 170.636 21.32C170.293 21.7073 169.794 21.9991 168.973 22.1926C168.132 22.3905 167.021 22.47 165.527 22.47V24.47C167.059 24.47 168.359 24.392 169.431 24.1393C170.523 23.8822 171.439 23.4302 172.134 22.645C172.818 21.8714 173.198 20.8737 173.415 19.6941C173.632 18.5187 173.702 17.0794 173.702 15.35H171.702ZM165.527 22.47C164.032 22.47 162.921 22.3905 162.08 22.1926C161.259 21.9991 160.76 21.7073 160.418 21.32C160.065 20.9211 159.786 20.3175 159.605 19.3315C159.422 18.3413 159.352 17.0506 159.352 15.35H157.352C157.352 17.0794 157.421 18.5187 157.638 19.6941C157.855 20.8737 158.235 21.8714 158.919 22.645C159.614 23.4302 160.53 23.8822 161.622 24.1393C162.694 24.392 163.994 24.47 165.527 24.47V22.47ZM159.352 15.35C159.352 13.6494 159.422 12.3587 159.605 11.3685C159.786 10.3825 160.065 9.77891 160.418 9.37995C160.76 8.9927 161.259 8.7009 162.08 8.50742C162.921 8.30946 164.032 8.23 165.527 8.23V6.23C163.994 6.23 162.694 6.30803 161.622 6.5607C160.53 6.81784 159.614 7.2698 158.919 8.05505C158.235 8.82859 157.855 9.82628 157.638 11.0059C157.421 12.1813 157.352 13.6206 157.352 15.35H159.352ZM149.652 15.35C149.652 18.3344 149.798 20.7855 150.237 22.7704C150.681 24.7698 151.437 26.3639 152.703 27.5611C153.965 28.7535 155.634 29.4579 157.722 29.8711C159.803 30.2827 162.378 30.42 165.527 30.42V28.42C162.41 28.42 159.993 28.2817 158.11 27.9091C156.235 27.5381 154.968 26.9497 154.077 26.1076C153.191 25.2705 152.578 24.0887 152.19 22.3376C151.799 20.572 151.652 18.2981 151.652 15.35H149.652ZM165.527 30.42C168.675 30.42 171.25 30.2827 173.331 29.8711C175.419 29.4579 177.088 28.7535 178.35 27.5611C179.616 26.3639 180.373 24.7698 180.816 22.7704C181.256 20.7855 181.402 18.3344 181.402 15.35H179.402C179.402 18.2981 179.254 20.572 178.863 22.3376C178.475 24.0887 177.862 25.2705 176.976 26.1076C176.085 26.9497 174.818 27.5381 172.943 27.9091C171.06 28.2817 168.643 28.42 165.527 28.42V30.42ZM181.402 15.35C181.402 12.3656 181.256 9.91451 180.816 7.92963C180.373 5.93022 179.616 4.3361 178.35 3.13886C177.088 1.94653 175.419 1.24215 173.331 0.828936C171.25 0.417274 168.675 0.279998 165.527 0.279998V2.28C168.643 2.28 171.06 2.41835 172.943 2.7909C174.818 3.16191 176.085 3.75034 176.976 4.59239C177.862 5.42953 178.475 6.61134 178.863 8.3624C179.254 10.128 179.402 12.4019 179.402 15.35H181.402ZM165.527 0.279998C162.378 0.279998 159.803 0.417274 157.722 0.828936C155.634 1.24215 153.965 1.94653 152.703 3.13886C151.437 4.3361 150.681 5.93022 150.237 7.92963C149.798 9.91451 149.652 12.3656 149.652 15.35H151.652C151.652 12.4019 151.799 10.128 152.19 8.3624C152.578 6.61134 153.191 5.42953 154.077 4.59239C154.968 3.75034 156.235 3.16191 158.11 2.7909C159.993 2.41835 162.41 2.28 165.527 2.28V0.279998ZM208.077 1.7H209.077V0.699999H208.077V1.7ZM200.727 1.7V0.699999H199.727V1.7H200.727ZM191.207 1.7H192.207V0.699999H191.207V1.7ZM183.857 1.7V0.699999H182.857V1.7H183.857ZM209.077 17.8V1.7H207.077V17.8H209.077ZM208.077 0.699999H200.727V2.7H208.077V0.699999ZM199.727 1.7V17.8H201.727V1.7H199.727ZM199.727 17.8C199.727 18.9855 199.681 19.8688 199.564 20.5372C199.448 21.2038 199.276 21.5691 199.091 21.7901C198.738 22.2102 198.027 22.47 195.967 22.47V24.47C197.933 24.47 199.601 24.2923 200.622 23.0761C201.124 22.479 201.387 21.7265 201.534 20.8805C201.682 20.0362 201.727 19.012 201.727 17.8H199.727ZM195.967 22.47C193.908 22.47 193.196 22.2102 192.844 21.7901C192.658 21.5691 192.486 21.2038 192.37 20.5372C192.253 19.8688 192.207 18.9855 192.207 17.8H190.207C190.207 19.012 190.252 20.0362 190.4 20.8805C190.547 21.7265 190.81 22.479 191.312 23.0761C192.333 24.2923 194.002 24.47 195.967 24.47V22.47ZM192.207 17.8V1.7H190.207V17.8H192.207ZM191.207 0.699999H183.857V2.7H191.207V0.699999ZM182.857 1.7V17.8H184.857V1.7H182.857ZM182.857 17.8C182.857 20.2675 182.975 22.3059 183.335 23.9625C183.698 25.6328 184.323 26.9851 185.387 28.0064C186.447 29.0241 187.844 29.6174 189.567 29.963C191.281 30.3068 193.396 30.42 195.967 30.42V28.42C193.428 28.42 191.474 28.3057 189.96 28.002C188.454 27.7001 187.462 27.2259 186.772 26.5636C186.086 25.9049 185.6 24.9647 185.289 23.5375C184.976 22.0966 184.857 20.2325 184.857 17.8H182.857ZM195.967 30.42C198.538 30.42 200.653 30.3068 202.367 29.963C204.091 29.6174 205.487 29.0241 206.547 28.0064C207.611 26.9851 208.236 25.6328 208.599 23.9625C208.96 22.3059 209.077 20.2675 209.077 17.8H207.077C207.077 20.2325 206.958 22.0966 206.645 23.5375C206.334 24.9647 205.848 25.9049 205.162 26.5636C204.472 27.2259 203.48 27.7001 201.974 28.002C200.46 28.3057 198.506 28.42 195.967 28.42V30.42ZM219.033 29H218.033V30H219.033V29ZM226.383 29V30H227.383V29H226.383ZM226.383 7.65V6.65H225.383V7.65H226.383ZM234.818 7.65V8.65H235.818V7.65H234.818ZM234.818 1.7H235.818V0.699999H234.818V1.7ZM210.668 1.7V0.699999H209.668V1.7H210.668ZM210.668 7.65H209.668V8.65H210.668V7.65ZM219.033 7.65H220.033V6.65H219.033V7.65ZM219.033 30H226.383V28H219.033V30ZM227.383 29V7.65H225.383V29H227.383ZM226.383 8.65H234.818V6.65H226.383V8.65ZM235.818 7.65V1.7H233.818V7.65H235.818ZM234.818 0.699999H210.668V2.7H234.818V0.699999ZM209.668 1.7V7.65H211.668V1.7H209.668ZM210.668 8.65H219.033V6.65H210.668V8.65ZM218.033 7.65V29H220.033V7.65H218.033Z" fill="white"/>
</svg>
