<svg width="761" height="93" viewBox="0 0 761 93" fill="none" xmlns="http://www.w3.org/2000/svg">
<path d="M88.6425 3.18519H63.1125L46.6845 35.3752H46.0185L29.9235 3.18519H3.28352L34.5855 58.9072V89.7652H57.8955V58.9072L88.6425 3.18519ZM133.123 20.7232C152.326 20.7232 155.878 24.7192 155.878 46.4752C155.878 68.2312 152.326 72.2272 133.123 72.2272C113.92 72.2272 110.368 68.2312 110.368 46.4752C110.368 24.7192 113.92 20.7232 133.123 20.7232ZM85.9482 46.4752C85.9482 84.1042 93.3852 91.0972 133.123 91.0972C172.861 91.0972 180.298 84.1042 180.298 46.4752C180.298 8.84619 172.861 1.85319 133.123 1.85319C93.3852 1.85319 85.9482 8.84619 85.9482 46.4752ZM264.898 54.2452V3.18519H241.588V54.2452C241.588 69.4522 239.257 72.2272 226.492 72.2272C213.727 72.2272 211.396 69.4522 211.396 54.2452V3.18519H188.086V54.2452C188.086 85.3252 194.08 91.0972 226.492 91.0972C258.904 91.0972 264.898 85.3252 264.898 54.2452ZM325.555 3.18519H273.829V89.7652H297.139V61.4602H320.005C327.442 61.4602 329.773 63.9022 329.773 73.6702C329.773 81.4402 330.217 86.1022 332.104 89.7652H357.634V88.7662C354.082 84.7702 353.194 77.2222 353.194 68.4532C353.194 57.9082 348.199 54.4672 338.431 52.2472C350.197 49.5832 354.415 44.6992 354.415 34.3762V31.0462C354.415 7.51419 350.086 3.18519 325.555 3.18519ZM297.139 43.7002V22.0552H319.561C329.329 22.0552 331.105 23.9422 331.105 32.7112C331.105 41.8132 329.329 43.7002 319.561 43.7002H297.139Z" fill="white"/>
<path d="M88.6425 3.18519L89.9558 3.90988L91.1834 1.68519H88.6425V3.18519ZM63.1125 3.18519V1.68519H62.194L61.7765 2.50334L63.1125 3.18519ZM46.6845 35.3752V36.8752H47.6031L48.0206 36.0571L46.6845 35.3752ZM46.0185 35.3752L44.6769 36.046L45.0915 36.8752H46.0185V35.3752ZM29.9235 3.18519L31.2652 2.51437L30.8506 1.68519H29.9235V3.18519ZM3.28352 3.18519V1.68519H0.720414L1.97574 3.91984L3.28352 3.18519ZM34.5855 58.9072H36.0855V58.5147L35.8933 58.1725L34.5855 58.9072ZM34.5855 89.7652H33.0855V91.2652H34.5855V89.7652ZM57.8955 89.7652V91.2652H59.3955V89.7652H57.8955ZM57.8955 58.9072L56.5822 58.1825L56.3955 58.5208V58.9072H57.8955ZM88.6425 1.68519H63.1125V4.68519H88.6425V1.68519ZM61.7765 2.50334L45.3485 34.6933L48.0206 36.0571L64.4486 3.86705L61.7765 2.50334ZM46.6845 33.8752H46.0185V36.8752H46.6845V33.8752ZM47.3602 34.7044L31.2652 2.51437L28.5819 3.85601L44.6769 36.046L47.3602 34.7044ZM29.9235 1.68519H3.28352V4.68519H29.9235V1.68519ZM1.97574 3.91984L33.2777 59.6418L35.8933 58.1725L4.5913 2.45054L1.97574 3.91984ZM33.0855 58.9072V89.7652H36.0855V58.9072H33.0855ZM34.5855 91.2652H57.8955V88.2652H34.5855V91.2652ZM59.3955 89.7652V58.9072H56.3955V89.7652H59.3955ZM59.2088 59.6319L89.9558 3.90988L87.3292 2.46051L56.5822 58.1825L59.2088 59.6319ZM133.123 22.2232C137.896 22.2232 141.577 22.474 144.436 23.1475C147.267 23.8144 149.198 24.8736 150.578 26.4344C151.974 28.0127 152.942 30.2562 153.548 33.5451C154.155 36.8402 154.378 41.0578 154.378 46.4752H157.378C157.378 41.0145 157.157 36.5742 156.498 33.0012C155.838 29.4219 154.718 26.5872 152.825 24.447C150.917 22.2893 148.36 20.9898 145.124 20.2275C141.916 19.4719 137.952 19.2232 133.123 19.2232V22.2232ZM154.378 46.4752C154.378 51.8926 154.155 56.1102 153.548 59.4053C152.942 62.6942 151.974 64.9377 150.578 66.516C149.198 68.0768 147.267 69.136 144.436 69.8028C141.577 70.4764 137.896 70.7272 133.123 70.7272V73.7272C137.952 73.7272 141.916 73.4785 145.124 72.7229C148.36 71.9606 150.917 70.6611 152.825 68.5034C154.718 66.3632 155.838 63.5285 156.498 59.9492C157.157 56.3762 157.378 51.9358 157.378 46.4752H154.378ZM133.123 70.7272C128.351 70.7272 124.67 70.4764 121.81 69.8028C118.98 69.136 117.048 68.0768 115.668 66.516C114.272 64.9377 113.305 62.6942 112.698 59.4053C112.091 56.1102 111.868 51.8926 111.868 46.4752H108.868C108.868 51.9358 109.089 56.3762 109.748 59.9492C110.408 63.5285 111.528 66.3632 113.421 68.5034C115.329 70.6611 117.886 71.9606 121.122 72.7229C124.33 73.4785 128.294 73.7272 133.123 73.7272V70.7272ZM111.868 46.4752C111.868 41.0578 112.091 36.8402 112.698 33.5451C113.305 30.2562 114.272 28.0127 115.668 26.4344C117.048 24.8736 118.98 23.8144 121.81 23.1475C124.67 22.474 128.351 22.2232 133.123 22.2232V19.2232C128.294 19.2232 124.33 19.4719 121.122 20.2275C117.886 20.9898 115.329 22.2893 113.421 24.447C111.528 26.5872 110.408 29.4219 109.748 33.0012C109.089 36.5742 108.868 41.0145 108.868 46.4752H111.868ZM84.4482 46.4752C84.4482 55.9097 84.9121 63.5351 86.2666 69.6467C87.626 75.7801 89.9046 80.4912 93.6036 83.9872C97.2948 87.4759 102.251 89.6129 108.696 90.8881C115.13 92.1609 123.165 92.5972 133.123 92.5972V89.5972C123.212 89.5972 115.416 89.1593 109.279 87.9451C103.153 86.7332 98.7995 84.7701 95.6642 81.8069C92.5368 78.8511 90.4724 74.7585 89.1956 68.9975C87.9139 63.2148 87.4482 55.8552 87.4482 46.4752H84.4482ZM133.123 92.5972C143.081 92.5972 151.116 92.1609 157.55 90.8881C163.995 89.6129 168.952 87.4759 172.643 83.9872C176.342 80.4912 178.62 75.7801 179.98 69.6467C181.334 63.5351 181.798 55.9097 181.798 46.4752H178.798C178.798 55.8552 178.332 63.2148 177.051 68.9975C175.774 74.7585 173.71 78.8511 170.582 81.8069C167.447 84.7701 163.093 86.7332 156.968 87.9451C150.83 89.1593 143.034 89.5972 133.123 89.5972V92.5972ZM181.798 46.4752C181.798 37.0407 181.334 29.4153 179.98 23.3037C178.62 17.1703 176.342 12.4592 172.643 8.96317C168.952 5.47452 163.995 3.33752 157.55 2.06232C151.116 0.789449 143.081 0.353192 133.123 0.353192V3.35319C143.034 3.35319 150.83 3.79106 156.968 5.00528C163.093 6.21717 167.447 8.18024 170.582 11.1435C173.71 14.0993 175.774 18.1919 177.051 23.9529C178.332 29.7356 178.798 37.0952 178.798 46.4752H181.798ZM133.123 0.353192C123.165 0.353192 115.13 0.789449 108.696 2.06232C102.251 3.33752 97.2948 5.47452 93.6036 8.96317C89.9046 12.4592 87.626 17.1703 86.2666 23.3037C84.9121 29.4153 84.4482 37.0407 84.4482 46.4752H87.4482C87.4482 37.0952 87.9139 29.7356 89.1956 23.9529C90.4724 18.1919 92.5368 14.0993 95.6642 11.1435C98.7995 8.18024 103.153 6.21717 109.279 5.00528C115.416 3.79106 123.212 3.35319 133.123 3.35319V0.353192ZM264.898 3.18519H266.398V1.68519H264.898V3.18519ZM241.588 3.18519V1.68519H240.088V3.18519H241.588ZM211.396 3.18519H212.896V1.68519H211.396V3.18519ZM188.086 3.18519V1.68519H186.586V3.18519H188.086ZM266.398 54.2452V3.18519H263.398V54.2452H266.398ZM264.898 1.68519H241.588V4.68519H264.898V1.68519ZM240.088 3.18519V54.2452H243.088V3.18519H240.088ZM240.088 54.2452C240.088 58.0271 239.941 60.9462 239.546 63.2128C239.152 65.477 238.53 66.9591 237.678 67.9743C236.001 69.9718 232.945 70.7272 226.492 70.7272V73.7272C232.804 73.7272 237.295 73.0951 239.975 69.9033C241.301 68.3239 242.06 66.2609 242.502 63.7278C242.943 61.1972 243.088 58.0668 243.088 54.2452H240.088ZM226.492 70.7272C220.039 70.7272 216.982 69.9718 215.305 67.9743C214.453 66.9591 213.831 65.477 213.437 63.2128C213.042 60.9462 212.896 58.0271 212.896 54.2452H209.896C209.896 58.0668 210.04 61.1972 210.481 63.7278C210.923 66.261 211.682 68.3239 213.008 69.9033C215.688 73.0951 220.18 73.7272 226.492 73.7272V70.7272ZM212.896 54.2452V3.18519H209.896V54.2452H212.896ZM211.396 1.68519H188.086V4.68519H211.396V1.68519ZM186.586 3.18519V54.2452H189.586V3.18519H186.586ZM186.586 54.2452C186.586 62.0414 186.959 68.3604 188.063 73.434C189.171 78.528 191.037 82.4723 194.095 85.4083C197.148 88.3388 201.239 90.1209 206.522 91.1804C211.792 92.2373 218.365 92.5972 226.492 92.5972V89.5972C218.413 89.5972 212.081 89.2356 207.112 88.239C202.155 87.2449 198.67 85.6416 196.173 83.2441C193.681 80.8521 192.023 77.5259 190.994 72.7964C189.961 68.0465 189.586 61.989 189.586 54.2452H186.586ZM226.492 92.5972C234.618 92.5972 241.191 92.2373 246.461 91.1804C251.744 90.1209 255.835 88.3388 258.888 85.4083C261.946 82.4723 263.812 78.528 264.92 73.434C266.024 68.3604 266.398 62.0414 266.398 54.2452H263.398C263.398 61.989 263.022 68.0465 261.989 72.7964C260.96 77.5259 259.302 80.8521 256.81 83.2441C254.313 85.6416 250.828 87.2449 245.871 88.239C240.902 89.2356 234.571 89.5972 226.492 89.5972V92.5972ZM273.829 3.18519V1.68519H272.329V3.18519H273.829ZM273.829 89.7652H272.329V91.2652H273.829V89.7652ZM297.139 89.7652V91.2652H298.639V89.7652H297.139ZM297.139 61.4602V59.9602H295.639V61.4602H297.139ZM332.104 89.7652L330.77 90.4521L331.189 91.2652H332.104V89.7652ZM357.634 89.7652V91.2652H359.134V89.7652H357.634ZM357.634 88.7662H359.134V88.1959L358.755 87.7697L357.634 88.7662ZM338.431 52.2472L338.099 50.7842L338.098 53.7099L338.431 52.2472ZM297.139 43.7002H295.639V45.2002H297.139V43.7002ZM297.139 22.0552V20.5552H295.639V22.0552H297.139ZM325.555 1.68519H273.829V4.68519H325.555V1.68519ZM272.329 3.18519V89.7652H275.329V3.18519H272.329ZM273.829 91.2652H297.139V88.2652H273.829V91.2652ZM298.639 89.7652V61.4602H295.639V89.7652H298.639ZM297.139 62.9602H320.005V59.9602H297.139V62.9602ZM320.005 62.9602C323.651 62.9602 325.468 63.5817 326.521 64.8573C327.66 66.2367 328.273 68.7827 328.273 73.6702H331.273C331.273 68.7897 330.72 65.2307 328.834 62.9471C326.863 60.5596 323.796 59.9602 320.005 59.9602V62.9602ZM328.273 73.6702C328.273 81.4169 328.696 86.4266 330.77 90.4521L333.437 89.0783C331.737 85.7778 331.273 81.4635 331.273 73.6702H328.273ZM332.104 91.2652H357.634V88.2652H332.104V91.2652ZM359.134 89.7652V88.7662H356.134V89.7652H359.134ZM358.755 87.7697C357.237 86.0627 356.198 83.4828 355.555 80.1178C354.915 76.7714 354.694 72.8008 354.694 68.4532H351.694C351.694 72.8746 351.916 77.0625 352.608 80.6813C353.297 84.2816 354.478 87.4737 356.513 89.7627L358.755 87.7697ZM354.694 68.4532C354.694 62.9423 353.382 58.9983 350.533 56.1647C347.748 53.3957 343.701 51.9068 338.763 50.7845L338.098 53.7099C342.928 54.8076 346.263 56.1491 348.418 58.292C350.507 60.3701 351.694 63.419 351.694 68.4532H354.694ZM338.762 53.7102C344.761 52.352 349.123 50.3712 351.957 47.1797C354.821 43.9535 355.915 39.7301 355.915 34.3762H352.915C352.915 39.3453 351.9 42.7254 349.713 45.188C347.496 47.6852 343.867 49.4784 338.099 50.7842L338.762 53.7102ZM355.915 34.3762V31.0462H352.915V34.3762H355.915ZM355.915 31.0462C355.915 25.1395 355.645 20.328 354.822 16.4537C353.995 12.5598 352.586 9.50143 350.228 7.21445C347.875 4.93193 344.728 3.56504 340.708 2.75859C336.702 1.95484 331.711 1.68519 325.555 1.68519V4.68519C331.664 4.68519 336.413 4.95667 340.118 5.69998C343.809 6.4406 346.344 7.62671 348.139 9.36793C349.93 11.1047 351.137 13.5409 351.888 17.077C352.643 20.6327 352.915 25.1869 352.915 31.0462H355.915ZM298.639 43.7002V22.0552H295.639V43.7002H298.639ZM297.139 23.5552H319.561V20.5552H297.139V23.5552ZM319.561 23.5552C321.973 23.5552 323.796 23.6735 325.186 23.9568C326.565 24.238 327.408 24.66 327.967 25.1869C328.518 25.7052 328.936 26.4585 329.212 27.6779C329.493 28.9207 329.605 30.5476 329.605 32.7112H332.605C332.605 30.4903 332.495 28.593 332.138 27.0157C331.775 25.415 331.139 24.0523 330.024 23.0028C328.919 21.9618 327.486 21.364 325.785 21.0173C324.095 20.6728 322.032 20.5552 319.561 20.5552V23.5552ZM329.605 32.7112C329.605 34.9596 329.493 36.6529 329.209 37.9472C328.93 39.2208 328.507 40.005 327.953 40.5405C327.394 41.0811 326.555 41.5096 325.181 41.7943C323.794 42.0818 321.974 42.2002 319.561 42.2002V45.2002C322.031 45.2002 324.097 45.0827 325.79 44.7319C327.496 44.3784 328.932 43.7663 330.038 42.6974C331.149 41.6234 331.781 40.2293 332.14 38.5891C332.495 36.9696 332.605 35.0138 332.605 32.7112H329.605ZM319.561 42.2002H297.139V45.2002H319.561V42.2002ZM489.737 53.0242L491.237 53.0138L491.226 51.5242H489.737V53.0242ZM465.317 53.0242V51.5242H463.796L463.817 53.0447L465.317 53.0242ZM465.317 39.8152L463.817 39.7945L463.796 41.3152H465.317V39.8152ZM489.737 39.8152V41.3152H491.226L491.237 39.8256L489.737 39.8152ZM489.737 51.5242H465.317V54.5242H489.737V51.5242ZM463.817 53.0447C463.872 57.0666 463.695 60.1481 463.155 62.5296C462.621 64.8811 461.754 66.4567 460.482 67.5775C459.19 68.7159 457.326 69.5219 454.542 70.0301C451.754 70.5391 448.174 70.7272 443.561 70.7272V73.7272C448.216 73.7272 452.017 73.5406 455.081 72.9813C458.149 72.4211 460.607 71.465 462.465 69.8284C464.342 68.1742 465.452 65.962 466.081 63.1936C466.702 60.4552 466.872 57.0848 466.817 53.0036L463.817 53.0447ZM443.561 70.7272C434.164 70.7272 429.351 69.6666 426.661 66.5328C425.307 64.955 424.366 62.7082 423.777 59.4133C423.187 56.1142 422.972 51.8933 422.972 46.4752H419.972C419.972 51.935 420.186 56.3722 420.824 59.9413C421.463 63.5144 422.548 66.3459 424.385 68.4866C428.078 72.7898 434.309 73.7272 443.561 73.7272V70.7272ZM422.972 46.4752C422.972 41.057 423.187 36.8362 423.777 33.5371C424.366 30.2422 425.307 27.9954 426.661 26.4176C429.351 23.2838 434.164 22.2232 443.561 22.2232V19.2232C434.309 19.2232 428.078 20.1606 424.385 24.4638C422.548 26.6045 421.463 29.436 420.824 33.0091C420.186 36.5782 419.972 41.0153 419.972 46.4752H422.972ZM443.561 22.2232C448.173 22.2232 451.754 22.4112 454.543 22.9187C457.327 23.4254 459.192 24.2286 460.484 25.3615C461.756 26.4762 462.622 28.0416 463.155 30.3759C463.695 32.7409 463.872 35.8007 463.817 39.7945L466.817 39.8359C466.872 35.7822 466.702 32.4318 466.08 29.7081C465.451 26.9537 464.34 24.7521 462.462 23.1056C460.605 21.4774 458.148 20.5254 455.08 19.9672C452.017 19.4098 448.216 19.2232 443.561 19.2232V22.2232ZM465.317 41.3152H489.737V38.3152H465.317V41.3152ZM491.237 39.8256C491.347 23.9035 489.664 13.6858 482.379 7.68816C478.76 4.70908 473.905 2.89471 467.591 1.81088C461.278 0.727169 453.377 0.353192 443.561 0.353192V3.35319C453.336 3.35319 461.03 3.72846 467.083 4.76763C473.136 5.80667 477.417 7.48881 480.472 10.0042C486.535 14.9956 488.348 23.7589 488.237 39.8048L491.237 39.8256ZM443.561 0.353192C433.741 0.353192 425.815 0.789432 419.468 2.06312C413.108 3.33941 408.216 5.47877 404.574 8.97057C400.927 12.4679 398.682 17.1783 397.343 23.3082C396.009 29.4177 395.552 37.0412 395.552 46.4752H398.552C398.552 37.0947 399.01 29.7332 400.274 23.9484C401.533 18.1839 403.569 14.0906 406.651 11.1361C409.738 8.17599 414.025 6.21529 420.058 5.00448C426.105 3.79108 433.789 3.35319 443.561 3.35319V0.353192ZM395.552 46.4752C395.552 55.9092 396.009 63.5327 397.343 69.6422C398.682 75.7721 400.927 80.4825 404.574 83.9798C408.216 87.4716 413.108 89.611 419.468 90.8873C425.815 92.161 433.741 92.5972 443.561 92.5972V89.5972C433.789 89.5972 426.105 89.1593 420.058 87.9459C414.025 86.7351 409.738 84.7744 406.651 81.8143C403.569 78.8598 401.533 74.7664 400.274 69.002C399.01 63.2172 398.552 55.8557 398.552 46.4752H395.552ZM443.561 92.5972C453.377 92.5972 461.278 92.2232 467.591 91.1377C473.905 90.052 478.762 88.2339 482.38 85.2472C489.664 79.2354 491.347 68.9904 491.237 53.0138L488.237 53.0346C488.348 69.137 486.535 77.9285 480.471 82.9335C477.416 85.4551 473.135 87.1404 467.083 88.1811C461.03 89.2219 453.336 89.5972 443.561 89.5972V92.5972ZM561.169 3.18519L562.588 2.70104L562.242 1.68519H561.169V3.18519ZM523.429 3.18519V1.68519H522.359L522.011 2.69615L523.429 3.18519ZM493.57 89.7652L492.152 89.2762L491.466 91.2652H493.57V89.7652ZM519.1 89.7652V91.2652H520.234L520.543 90.1735L519.1 89.7652ZM523.873 72.8932V71.3932H522.738L522.429 72.4849L523.873 72.8932ZM558.616 72.8932L560.043 72.433L559.708 71.3932H558.616V72.8932ZM564.055 89.7652L562.627 90.2254L562.962 91.2652H564.055V89.7652ZM590.695 89.7652V91.2652H592.791L592.114 89.281L590.695 89.7652ZM529.312 54.0232L527.903 53.5079L527.166 55.5232H529.312V54.0232ZM541.411 20.9452V19.4452H540.362L540.002 20.4299L541.411 20.9452ZM542.299 20.9452L543.721 20.468L543.378 19.4452H542.299V20.9452ZM553.399 54.0232V55.5232H555.484L554.821 53.546L553.399 54.0232ZM561.169 1.68519H523.429V4.68519H561.169V1.68519ZM522.011 2.69615L492.152 89.2762L494.988 90.2542L524.847 3.67424L522.011 2.69615ZM493.57 91.2652H519.1V88.2652H493.57V91.2652ZM520.543 90.1735L525.316 73.3015L522.429 72.4849L517.656 89.3569L520.543 90.1735ZM523.873 74.3932H558.616V71.3932H523.873V74.3932ZM557.188 73.3534L562.627 90.2254L565.482 89.305L560.043 72.433L557.188 73.3534ZM564.055 91.2652H590.695V88.2652H564.055V91.2652ZM592.114 89.281L562.588 2.70104L559.749 3.66935L589.275 90.2494L592.114 89.281ZM530.72 54.5385L542.819 21.4605L540.002 20.4299L527.903 53.5079L530.72 54.5385ZM541.411 22.4452H542.299V19.4452H541.411V22.4452ZM540.877 21.4224L551.977 54.5004L554.821 53.546L543.721 20.468L540.877 21.4224ZM553.399 52.5232H529.312V55.5232H553.399V52.5232ZM595.664 3.18519V1.68519H594.164V3.18519H595.664ZM595.664 89.7652H594.164V91.2652H595.664V89.7652ZM618.974 89.7652V91.2652H620.474V89.7652H618.974ZM618.974 61.4602V59.9602H617.474V61.4602H618.974ZM653.939 89.7652L652.605 90.4521L653.024 91.2652H653.939V89.7652ZM679.469 89.7652V91.2652H680.969V89.7652H679.469ZM679.469 88.7662H680.969V88.1959L680.59 87.7697L679.469 88.7662ZM660.266 52.2472L659.934 50.7842L659.933 53.7099L660.266 52.2472ZM618.974 43.7002H617.474V45.2002H618.974V43.7002ZM618.974 22.0552V20.5552H617.474V22.0552H618.974ZM647.39 1.68519H595.664V4.68519H647.39V1.68519ZM594.164 3.18519V89.7652H597.164V3.18519H594.164ZM595.664 91.2652H618.974V88.2652H595.664V91.2652ZM620.474 89.7652V61.4602H617.474V89.7652H620.474ZM618.974 62.9602H641.84V59.9602H618.974V62.9602ZM641.84 62.9602C645.486 62.9602 647.303 63.5817 648.356 64.8573C649.495 66.2367 650.108 68.7827 650.108 73.6702H653.108C653.108 68.7897 652.555 65.2307 650.669 62.9471C648.698 60.5596 645.631 59.9602 641.84 59.9602V62.9602ZM650.108 73.6702C650.108 81.4169 650.531 86.4266 652.605 90.4521L655.272 89.0783C653.572 85.7778 653.108 81.4635 653.108 73.6702H650.108ZM653.939 91.2652H679.469V88.2652H653.939V91.2652ZM680.969 89.7652V88.7662H677.969V89.7652H680.969ZM680.59 87.7697C679.072 86.0627 678.033 83.4828 677.39 80.1178C676.75 76.7714 676.529 72.8008 676.529 68.4532H673.529C673.529 72.8746 673.751 77.0625 674.443 80.6813C675.132 84.2816 676.313 87.4737 678.348 89.7627L680.59 87.7697ZM676.529 68.4532C676.529 62.9423 675.217 58.9983 672.368 56.1647C669.583 53.3957 665.536 51.9068 660.598 50.7845L659.933 53.7099C664.763 54.8076 668.098 56.1491 670.252 58.292C672.342 60.3701 673.529 63.419 673.529 68.4532H676.529ZM660.597 53.7102C666.596 52.352 670.958 50.3712 673.792 47.1797C676.656 43.9535 677.75 39.7301 677.75 34.3762H674.75C674.75 39.3453 673.734 42.7254 671.548 45.188C669.331 47.6852 665.702 49.4784 659.934 50.7842L660.597 53.7102ZM677.75 34.3762V31.0462H674.75V34.3762H677.75ZM677.75 31.0462C677.75 25.1395 677.48 20.328 676.657 16.4537C675.83 12.5598 674.421 9.50143 672.063 7.21445C669.71 4.93193 666.563 3.56504 662.543 2.75859C658.537 1.95484 653.546 1.68519 647.39 1.68519V4.68519C653.499 4.68519 658.248 4.95667 661.953 5.69998C665.644 6.4406 668.179 7.62671 669.974 9.36793C671.765 11.1047 672.972 13.5409 673.723 17.077C674.478 20.6327 674.75 25.1869 674.75 31.0462H677.75ZM620.474 43.7002V22.0552H617.474V43.7002H620.474ZM618.974 23.5552H641.396V20.5552H618.974V23.5552ZM641.396 23.5552C643.808 23.5552 645.63 23.6735 647.021 23.9568C648.4 24.238 649.243 24.66 649.802 25.1869C650.353 25.7052 650.771 26.4585 651.047 27.6779C651.328 28.9207 651.44 30.5476 651.44 32.7112H654.44C654.44 30.4903 654.329 28.593 653.973 27.0157C653.61 25.415 652.973 24.0523 651.859 23.0028C650.753 21.9618 649.321 21.364 647.62 21.0173C645.93 20.6728 643.867 20.5552 641.396 20.5552V23.5552ZM651.44 32.7112C651.44 34.9596 651.328 36.6529 651.044 37.9472C650.765 39.2208 650.342 40.005 649.788 40.5405C649.229 41.0811 648.39 41.5096 647.016 41.7943C645.629 42.0818 643.809 42.2002 641.396 42.2002V45.2002C643.866 45.2002 645.932 45.0827 647.625 44.7319C649.331 44.3784 650.767 43.7663 651.873 42.6974C652.984 41.6234 653.615 40.2293 653.975 38.5891C654.33 36.9696 654.44 35.0138 654.44 32.7112H651.44ZM641.396 42.2002H618.974V45.2002H641.396V42.2002ZM709.362 89.7652H707.862V91.2652H709.362V89.7652ZM732.672 89.7652V91.2652H734.172V89.7652H732.672ZM732.672 22.0552V20.5552H731.172V22.0552H732.672ZM759.423 22.0552V23.5552H760.923V22.0552H759.423ZM759.423 3.18519H760.923V1.68519H759.423V3.18519ZM682.833 3.18519V1.68519H681.333V3.18519H682.833ZM682.833 22.0552H681.333V23.5552H682.833V22.0552ZM709.362 22.0552H710.862V20.5552H709.362V22.0552ZM709.362 91.2652H732.672V88.2652H709.362V91.2652ZM734.172 89.7652V22.0552H731.172V89.7652H734.172ZM732.672 23.5552H759.423V20.5552H732.672V23.5552ZM760.923 22.0552V3.18519H757.923V22.0552H760.923ZM759.423 1.68519H682.833V4.68519H759.423V1.68519ZM681.333 3.18519V22.0552H684.333V3.18519H681.333ZM682.833 23.5552H709.362V20.5552H682.833V23.5552ZM707.862 22.0552V89.7652H710.862V22.0552H707.862Z" fill="white"/>
</svg>
