<svg width="1376" height="486" viewBox="0 0 1376 486" fill="none" xmlns="http://www.w3.org/2000/svg">
<path d="M610.98 44.06L613.082 43.7912L612.845 41.9409H610.98V44.06ZM557.46 44.06V41.9409H554.904L555.377 44.4525L557.46 44.06ZM590.241 218L588.158 218.392L588.484 220.119H590.241V218ZM666.061 218V220.119H667.923L668.162 218.272L666.061 218ZM683.678 81.97V79.8509H681.815L681.576 81.6978L683.678 81.97ZM685.462 81.97L687.553 81.6305L687.265 79.8509H685.462V81.97ZM707.539 218L705.447 218.339L705.736 220.119H707.539V218ZM783.359 218V220.119H785.184L785.454 218.314L783.359 218ZM809.45 44.06L811.545 44.3743L811.91 41.9409H809.45V44.06ZM760.39 44.06V41.9409H758.494L758.284 43.8252L760.39 44.06ZM745.226 180.09V182.209H747.122L747.332 180.325L745.226 180.09ZM743.442 180.09L741.342 180.379L741.594 182.209H743.442V180.09ZM724.71 44.06L726.809 43.7709L726.557 41.9409H724.71V44.06ZM648.89 44.06V41.9409H647.042L646.79 43.7709L648.89 44.06ZM630.158 180.09V182.209H632.005L632.257 180.379L630.158 180.09ZM628.374 180.09L626.272 180.359L626.508 182.209H628.374V180.09ZM610.98 41.9409H557.46V46.1791H610.98V41.9409ZM555.377 44.4525L588.158 218.392L592.323 217.608L559.542 43.6675L555.377 44.4525ZM590.241 220.119H666.061V215.881H590.241V220.119ZM668.162 218.272L685.779 82.2422L681.576 81.6978L663.959 217.728L668.162 218.272ZM683.678 84.0891H685.462V79.8509H683.678V84.0891ZM683.37 82.3095L705.447 218.339L709.63 217.661L687.553 81.6305L683.37 82.3095ZM707.539 220.119H783.359V215.881H707.539V220.119ZM785.454 218.314L811.545 44.3743L807.354 43.7456L781.263 217.686L785.454 218.314ZM809.45 41.9409H760.39V46.1791H809.45V41.9409ZM758.284 43.8252L743.12 179.855L747.332 180.325L762.496 44.2948L758.284 43.8252ZM745.226 177.971H743.442V182.209H745.226V177.971ZM745.541 179.801L726.809 43.7709L722.61 44.3491L741.342 180.379L745.541 179.801ZM724.71 41.9409H648.89V46.1791H724.71V41.9409ZM646.79 43.7709L628.058 179.801L632.257 180.379L650.989 44.3491L646.79 43.7709ZM630.158 177.971H628.374V182.209H630.158V177.971ZM630.476 179.821L613.082 43.7912L608.878 44.3288L626.272 180.359L630.476 179.821ZM826.406 44.06V41.9409H824.287V44.06H826.406ZM826.406 218H824.287V220.119H826.406V218ZM968.903 218V220.119H971.022V218H968.903ZM968.903 177.86H971.022V175.741H968.903V177.86ZM873.236 177.86H871.117V179.979H873.236V177.86ZM873.236 148.87V146.751H871.117V148.87H873.236ZM957.53 148.87V150.989H959.649V148.87H957.53ZM957.53 110.96H959.649V108.841H957.53V110.96ZM873.236 110.96H871.117V113.079H873.236V110.96ZM873.236 84.2V82.0809H871.117V84.2H873.236ZM968.903 84.2V86.3191H971.022V84.2H968.903ZM968.903 44.06H971.022V41.9409H968.903V44.06ZM824.287 44.06V218H828.525V44.06H824.287ZM826.406 220.119H968.903V215.881H826.406V220.119ZM971.022 218V177.86H966.784V218H971.022ZM968.903 175.741H873.236V179.979H968.903V175.741ZM875.355 177.86V148.87H871.117V177.86H875.355ZM873.236 150.989H957.53V146.751H873.236V150.989ZM959.649 148.87V110.96H955.411V148.87H959.649ZM957.53 108.841H873.236V113.079H957.53V108.841ZM875.355 110.96V84.2H871.117V110.96H875.355ZM873.236 86.3191H968.903V82.0809H873.236V86.3191ZM971.022 84.2V44.06H966.784V84.2H971.022ZM968.903 41.9409H826.406V46.1791H968.903V41.9409ZM1121.69 44.06L1123.7 43.376L1123.21 41.9409H1121.69V44.06ZM1045.87 44.06V41.9409H1044.36L1043.87 43.3691L1045.87 44.06ZM985.883 218L983.879 217.309L982.91 220.119H985.883V218ZM1037.17 218V220.119H1038.78L1039.21 218.577L1037.17 218ZM1046.76 184.104V181.985H1045.16L1044.72 183.527L1046.76 184.104ZM1116.56 184.104L1118.58 183.454L1118.1 181.985H1116.56V184.104ZM1127.49 218L1125.47 218.65L1125.94 220.119H1127.49V218ZM1181.01 218V220.119H1183.97L1183.01 217.316L1181.01 218ZM1057.69 146.194L1055.7 145.466L1054.66 148.313H1057.69V146.194ZM1082 79.74V77.6209H1080.51L1080.01 79.0121L1082 79.74ZM1083.78 79.74L1085.79 79.0658L1085.3 77.6209H1083.78V79.74ZM1106.08 146.194V148.313H1109.03L1108.09 145.52L1106.08 146.194ZM1121.69 41.9409H1045.87V46.1791H1121.69V41.9409ZM1043.87 43.3691L983.879 217.309L987.886 218.691L1047.87 44.7509L1043.87 43.3691ZM985.883 220.119H1037.17V215.881H985.883V220.119ZM1039.21 218.577L1048.8 184.681L1044.72 183.527L1035.13 217.423L1039.21 218.577ZM1046.76 186.223H1116.56V181.985H1046.76V186.223ZM1114.54 184.754L1125.47 218.65L1129.5 217.35L1118.58 183.454L1114.54 184.754ZM1127.49 220.119H1181.01V215.881H1127.49V220.119ZM1183.01 217.316L1123.7 43.376L1119.68 44.744L1179 218.684L1183.01 217.316ZM1059.68 146.922L1083.99 80.4679L1080.01 79.0121L1055.7 145.466L1059.68 146.922ZM1082 81.8591H1083.78V77.6209H1082V81.8591ZM1081.77 80.4142L1104.07 146.868L1108.09 145.52L1085.79 79.0658L1081.77 80.4142ZM1106.08 144.075H1057.69V148.313H1106.08V144.075ZM1197.99 44.06V41.9409H1195.87V44.06H1197.99ZM1197.99 218H1195.87V220.119H1197.99V218ZM1244.82 218V220.119H1246.94V218H1244.82ZM1244.82 161.135V159.016H1242.7V161.135H1244.82ZM1315.07 218L1313.18 218.97L1313.77 220.119H1315.07V218ZM1366.36 218V220.119H1368.47V218H1366.36ZM1366.36 215.993H1368.47V215.187L1367.94 214.585L1366.36 215.993ZM1327.78 142.626L1327.31 140.559L1327.31 144.692L1327.78 142.626ZM1244.82 125.455H1242.7V127.574H1244.82V125.455ZM1244.82 81.97V79.8509H1242.7V81.97H1244.82ZM1301.91 41.9409H1197.99V46.1791H1301.91V41.9409ZM1195.87 44.06V218H1200.11V44.06H1195.87ZM1197.99 220.119H1244.82V215.881H1197.99V220.119ZM1246.94 218V161.135H1242.7V218H1246.94ZM1244.82 163.254H1290.76V159.016H1244.82V163.254ZM1290.76 163.254C1298.13 163.254 1302.15 164.496 1304.54 167.39C1307.05 170.431 1308.26 175.848 1308.26 185.665H1312.5C1312.5 175.858 1311.37 169.01 1307.81 164.692C1304.12 160.227 1298.33 159.016 1290.76 159.016V163.254ZM1308.26 185.665C1308.26 201.242 1309.13 211.099 1313.18 218.97L1316.95 217.03C1313.42 210.183 1312.5 201.308 1312.5 185.665H1308.26ZM1315.07 220.119H1366.36V215.881H1315.07V220.119ZM1368.47 218V215.993H1364.24V218H1368.47ZM1367.94 214.585C1364.74 210.982 1362.61 205.617 1361.3 198.786C1360 191.982 1359.55 183.94 1359.55 175.184H1355.32C1355.32 184.045 1355.76 192.393 1357.14 199.582C1358.51 206.745 1360.84 212.976 1364.77 217.401L1367.94 214.585ZM1359.55 175.184C1359.55 164.255 1356.96 156.598 1351.46 151.13C1346.05 145.754 1338.13 142.807 1328.25 140.56L1327.31 144.692C1337.04 146.905 1343.95 149.644 1348.47 154.136C1352.9 158.536 1355.32 164.928 1355.32 175.184H1359.55ZM1328.24 144.693C1340.23 141.98 1348.77 138.056 1354.28 131.852C1359.83 125.598 1362.01 117.364 1362.01 106.723H1357.77C1357.77 116.821 1355.71 123.863 1351.11 129.038C1346.47 134.262 1338.96 137.92 1327.31 140.559L1328.24 144.693ZM1362.01 106.723V100.033H1357.77V106.723H1362.01ZM1362.01 100.033C1362.01 88.1805 1361.47 78.591 1359.83 70.9023C1358.19 63.1861 1355.42 57.2274 1350.85 52.7968C1346.29 48.3726 1340.15 45.6804 1332.18 44.0799C1324.22 42.4831 1314.26 41.9409 1301.91 41.9409V46.1791C1314.2 46.1791 1323.81 46.724 1331.34 48.2353C1338.86 49.7428 1344.13 52.1796 1347.9 55.8391C1351.67 59.4924 1354.15 64.5721 1355.69 71.783C1357.22 79.0214 1357.77 88.2474 1357.77 100.033H1362.01ZM1246.94 125.455V81.97H1242.7V125.455H1246.94ZM1244.82 84.0891H1289.87V79.8509H1244.82V84.0891ZM1289.87 84.0891C1294.73 84.0891 1298.46 84.3265 1301.35 84.914C1304.21 85.4984 1306.08 86.3986 1307.37 87.6104C1308.64 88.8102 1309.55 90.5051 1310.13 93.0686C1310.71 95.6651 1310.94 99.0142 1310.94 103.378H1315.18C1315.18 98.9333 1314.96 95.2021 1314.26 92.133C1313.56 89.0309 1312.34 86.475 1310.27 84.5249C1308.22 82.5868 1305.51 81.4382 1302.19 80.7612C1298.89 80.0873 1294.81 79.8509 1289.87 79.8509V84.0891ZM1310.94 103.378C1310.94 107.911 1310.71 111.391 1310.12 114.089C1309.54 116.756 1308.63 118.514 1307.35 119.75C1306.06 120.994 1304.2 121.909 1301.34 122.502C1298.46 123.098 1294.73 123.336 1289.87 123.336V127.574C1294.81 127.574 1298.89 127.338 1302.2 126.652C1305.53 125.962 1308.24 124.787 1310.29 122.797C1312.36 120.8 1313.57 118.181 1314.26 114.995C1314.96 111.839 1315.18 107.988 1315.18 103.378H1310.94ZM1289.87 123.336H1244.82V127.574H1289.87V123.336ZM9.41414 279.06V276.941H7.29503V279.06H9.41414ZM9.41414 453H7.29503V455.119H9.41414V453ZM151.911 453V455.119H154.03V453H151.911ZM151.911 412.86H154.03V410.741H151.911V412.86ZM56.2441 412.86H54.125V414.979H56.2441V412.86ZM56.2441 383.87V381.751H54.125V383.87H56.2441ZM140.538 383.87V385.989H142.657V383.87H140.538ZM140.538 345.96H142.657V343.841H140.538V345.96ZM56.2441 345.96H54.125V348.079H56.2441V345.96ZM56.2441 319.2V317.081H54.125V319.2H56.2441ZM151.911 319.2V321.319H154.03V319.2H151.911ZM151.911 279.06H154.03V276.941H151.911V279.06ZM7.29503 279.06V453H11.5333V279.06H7.29503ZM9.41414 455.119H151.911V450.881H9.41414V455.119ZM154.03 453V412.86H149.792V453H154.03ZM151.911 410.741H56.2441V414.979H151.911V410.741ZM58.3633 412.86V383.87H54.125V412.86H58.3633ZM56.2441 385.989H140.538V381.751H56.2441V385.989ZM142.657 383.87V345.96H138.419V383.87H142.657ZM140.538 343.841H56.2441V348.079H140.538V343.841ZM58.3633 345.96V319.2H54.125V345.96H58.3633ZM56.2441 321.319H151.911V317.081H56.2441V321.319ZM154.03 319.2V279.06H149.792V319.2H154.03ZM151.911 276.941H9.41414V281.179H151.911V276.941ZM337.506 279.06L339.545 279.638L340.309 276.941H337.506V279.06ZM286.216 279.06V276.941H284.575L284.165 278.53L286.216 279.06ZM251.651 412.86V414.979H253.293L253.703 413.39L251.651 412.86ZM249.867 412.86L247.819 413.403L248.237 414.979H249.867V412.86ZM214.41 279.06L216.459 278.517L216.041 276.941H214.41V279.06ZM160.89 279.06V276.941H158.053L158.859 279.662L160.89 279.06ZM212.403 453L210.372 453.602L210.821 455.119H212.403V453ZM288.223 453V455.119H289.826L290.262 453.578L288.223 453ZM337.506 276.941H286.216V281.179H337.506V276.941ZM284.165 278.53L249.6 412.33L253.703 413.39L288.268 279.59L284.165 278.53ZM251.651 410.741H249.867V414.979H251.651V410.741ZM251.916 412.317L216.459 278.517L212.362 279.603L247.819 413.403L251.916 412.317ZM214.41 276.941H160.89V281.179H214.41V276.941ZM158.859 279.662L210.372 453.602L214.435 452.398L162.922 278.458L158.859 279.662ZM212.403 455.119H288.223V450.881H212.403V455.119ZM290.262 453.578L339.545 279.638L335.468 278.482L286.185 452.422L290.262 453.578ZM346.487 279.06V276.941H344.368V279.06H346.487ZM346.487 453H344.368V455.119H346.487V453ZM488.984 453V455.119H491.103V453H488.984ZM488.984 412.86H491.103V410.741H488.984V412.86ZM393.317 412.86H391.198V414.979H393.317V412.86ZM393.317 383.87V381.751H391.198V383.87H393.317ZM477.611 383.87V385.989H479.73V383.87H477.611ZM477.611 345.96H479.73V343.841H477.611V345.96ZM393.317 345.96H391.198V348.079H393.317V345.96ZM393.317 319.2V317.081H391.198V319.2H393.317ZM488.984 319.2V321.319H491.103V319.2H488.984ZM488.984 279.06H491.103V276.941H488.984V279.06ZM344.368 279.06V453H348.607V279.06H344.368ZM346.487 455.119H488.984V450.881H346.487V455.119ZM491.103 453V412.86H486.865V453H491.103ZM488.984 410.741H393.317V414.979H488.984V410.741ZM395.436 412.86V383.87H391.198V412.86H395.436ZM393.317 385.989H477.611V381.751H393.317V385.989ZM479.73 383.87V345.96H475.492V383.87H479.73ZM477.611 343.841H393.317V348.079H477.611V343.841ZM395.436 345.96V319.2H391.198V345.96H395.436ZM393.317 321.319H488.984V317.081H393.317V321.319ZM491.103 319.2V279.06H486.865V319.2H491.103ZM488.984 276.941H346.487V281.179H488.984V276.941ZM505.769 279.06V276.941H503.65V279.06H505.769ZM505.769 453H503.65V455.119H505.769V453ZM552.599 453V455.119H554.718V453H552.599ZM552.599 396.135V394.016H550.479V396.135H552.599ZM622.844 453L620.96 453.97L621.552 455.119H622.844V453ZM674.134 453V455.119H676.253V453H674.134ZM674.134 450.993H676.253V450.187L675.717 449.585L674.134 450.993ZM635.555 377.626L635.087 375.559L635.085 379.692L635.555 377.626ZM552.599 360.455H550.479V362.574H552.599V360.455ZM552.599 316.97V314.851H550.479V316.97H552.599ZM609.687 276.941H505.769V281.179H609.687V276.941ZM503.65 279.06V453H507.888V279.06H503.65ZM505.769 455.119H552.599V450.881H505.769V455.119ZM554.718 453V396.135H550.479V453H554.718ZM552.599 398.254H598.537V394.016H552.599V398.254ZM598.537 398.254C605.905 398.254 609.928 399.496 612.318 402.39C614.828 405.431 616.042 410.848 616.042 420.665H620.28C620.28 410.858 619.151 404.01 615.586 399.692C611.899 395.227 606.11 394.016 598.537 394.016V398.254ZM616.042 420.665C616.042 436.242 616.905 446.099 620.96 453.97L624.727 452.03C621.2 445.183 620.28 436.308 620.28 420.665H616.042ZM622.844 455.119H674.134V450.881H622.844V455.119ZM676.253 453V450.993H672.015V453H676.253ZM675.717 449.585C672.515 445.982 670.385 440.617 669.079 433.786C667.778 426.982 667.333 418.94 667.333 410.184H663.095C663.095 419.045 663.541 427.393 664.916 434.582C666.286 441.745 668.616 447.976 672.55 452.401L675.717 449.585ZM667.333 410.184C667.333 399.255 664.736 391.598 659.237 386.13C653.831 380.754 645.913 377.807 636.024 375.56L635.085 379.692C644.821 381.905 651.732 384.644 656.249 389.136C660.674 393.536 663.095 399.928 663.095 410.184H667.333ZM636.023 379.693C648.005 376.98 656.551 373.056 662.06 366.852C667.612 360.598 669.786 352.364 669.786 341.723H665.548C665.548 351.821 663.485 358.863 658.89 364.038C654.252 369.262 646.742 372.92 635.087 375.559L636.023 379.693ZM669.786 341.723V335.033H665.548V341.723H669.786ZM669.786 335.033C669.786 323.181 669.244 313.591 667.611 305.902C665.971 298.186 663.201 292.227 658.633 287.797C654.072 283.373 647.932 280.68 639.954 279.08C631.996 277.483 622.04 276.941 609.687 276.941V281.179C621.975 281.179 631.588 281.724 639.12 283.235C646.634 284.743 651.909 287.18 655.682 290.839C659.449 294.492 661.933 299.572 663.465 306.783C665.002 314.021 665.548 323.247 665.548 335.033H669.786ZM554.718 360.455V316.97H550.479V360.455H554.718ZM552.599 319.089H597.645V314.851H552.599V319.089ZM597.645 319.089C602.509 319.089 606.242 319.327 609.124 319.914C611.991 320.498 613.86 321.399 615.147 322.61C616.421 323.81 617.326 325.505 617.906 328.069C618.493 330.665 618.718 334.014 618.718 338.378H622.956C622.956 333.933 622.734 330.202 622.039 327.133C621.337 324.031 620.123 321.475 618.052 319.525C615.994 317.587 613.292 316.438 609.971 315.761C606.665 315.087 602.592 314.851 597.645 314.851V319.089ZM618.718 338.378C618.718 342.911 618.493 346.391 617.902 349.089C617.318 351.756 616.406 353.514 615.127 354.75C613.84 355.994 611.977 356.909 609.117 357.502C606.239 358.098 602.51 358.336 597.645 358.336V362.574C602.591 362.574 606.667 362.338 609.977 361.652C613.306 360.962 616.014 359.787 618.072 357.797C620.139 355.8 621.345 353.181 622.043 349.995C622.734 346.839 622.956 342.988 622.956 338.378H618.718ZM597.645 358.336H552.599V362.574H597.645V358.336ZM851.38 279.06L853.236 280.084L854.97 276.941H851.38V279.06ZM800.09 279.06V276.941H798.793L798.203 278.097L800.09 279.06ZM767.086 343.73V345.849H768.384L768.974 344.693L767.086 343.73ZM765.748 343.73L763.853 344.678L764.439 345.849H765.748V343.73ZM733.413 279.06L735.309 278.112L734.723 276.941H733.413V279.06ZM679.893 279.06V276.941H676.272L678.046 280.098L679.893 279.06ZM742.779 391.006H744.898V390.452L744.627 389.968L742.779 391.006ZM742.779 453H740.66V455.119H742.779V453ZM789.609 453V455.119H791.728V453H789.609ZM789.609 391.006L787.754 389.982L787.49 390.46V391.006H789.609ZM851.38 276.941H800.09V281.179H851.38V276.941ZM798.203 278.097L765.199 342.767L768.974 344.693L801.978 280.023L798.203 278.097ZM767.086 341.611H765.748V345.849H767.086V341.611ZM767.644 342.782L735.309 278.112L731.518 280.008L763.853 344.678L767.644 342.782ZM733.413 276.941H679.893V281.179H733.413V276.941ZM678.046 280.098L740.932 392.044L744.627 389.968L681.741 278.022L678.046 280.098ZM740.66 391.006V453H744.898V391.006H740.66ZM742.779 455.119H789.609V450.881H742.779V455.119ZM791.728 453V391.006H787.49V453H791.728ZM791.465 392.03L853.236 280.084L849.525 278.036L787.754 389.982L791.465 392.03ZM907.312 319.2V317.081H905.202L905.192 319.19L907.312 319.2ZM907.312 412.86L905.192 412.87L905.202 414.979H907.312V412.86ZM907.089 366.03L904.969 366.02L904.969 366.03L904.969 366.04L907.089 366.03ZM860.482 453H858.362V455.119H860.482V453ZM860.482 279.06V276.941H858.362V279.06H860.482ZM907.312 321.319H945.445V317.081H907.312V321.319ZM945.445 321.319C952.948 321.319 958.694 321.672 963.141 322.773C967.521 323.857 970.515 325.636 972.672 328.437C974.878 331.301 976.383 335.455 977.311 341.624C978.238 347.783 978.559 355.735 978.559 366.03H982.798C982.798 355.698 982.478 347.482 981.502 340.993C980.528 334.514 978.87 329.538 976.03 325.851C973.142 322.102 969.208 319.909 964.16 318.659C959.178 317.425 952.993 317.081 945.445 317.081V321.319ZM978.559 366.03C978.559 376.213 978.238 384.109 977.311 390.247C976.384 396.394 974.878 400.567 972.667 403.462C968.336 409.133 960.632 410.741 945.445 410.741V414.979C960.362 414.979 970.275 413.576 976.035 406.035C978.869 402.323 980.527 397.339 981.502 390.88C982.478 384.412 982.798 376.252 982.798 366.03H978.559ZM945.445 410.741H907.312V414.979H945.445V410.741ZM909.431 412.85L909.208 366.02L904.969 366.04L905.192 412.87L909.431 412.85ZM909.208 366.04L909.431 319.21L905.192 319.19L904.969 366.02L909.208 366.04ZM860.482 455.119H950.351V450.881H860.482V455.119ZM950.351 455.119C967.048 455.119 980.532 454.383 991.332 452.05C1002.17 449.711 1010.45 445.733 1016.6 439.142C1022.73 432.567 1026.52 423.614 1028.79 411.722C1031.06 399.842 1031.86 384.849 1031.86 366.03H1027.62C1027.62 384.787 1026.82 399.453 1024.63 410.925C1022.44 422.385 1018.88 430.477 1013.5 436.252C1008.13 442.009 1000.74 445.683 990.437 447.908C980.1 450.14 966.991 450.881 950.351 450.881V455.119ZM1031.86 366.03C1031.86 347.211 1031.06 332.218 1028.79 320.338C1026.52 308.446 1022.73 299.493 1016.6 292.918C1010.45 286.327 1002.17 282.349 991.332 280.01C980.532 277.677 967.048 276.941 950.351 276.941V281.179C966.991 281.179 980.1 281.92 990.437 284.152C1000.74 286.377 1008.13 290.051 1013.5 295.808C1018.88 301.583 1022.44 309.674 1024.63 321.135C1026.82 332.607 1027.62 347.273 1027.62 366.03H1031.86ZM950.351 276.941H860.482V281.179H950.351V276.941ZM858.362 279.06V453H862.601V279.06H858.362ZM1172.37 279.06L1174.38 278.376L1173.89 276.941H1172.37V279.06ZM1096.55 279.06V276.941H1095.04L1094.55 278.369L1096.55 279.06ZM1036.57 453L1034.56 452.309L1033.59 455.119H1036.57V453ZM1087.86 453V455.119H1089.46L1089.9 453.577L1087.86 453ZM1097.45 419.104V416.985H1095.84L1095.41 418.527L1097.45 419.104ZM1167.24 419.104L1169.26 418.454L1168.79 416.985H1167.24V419.104ZM1178.17 453L1176.15 453.65L1176.63 455.119H1178.17V453ZM1231.69 453V455.119H1234.65L1233.7 452.316L1231.69 453ZM1108.37 381.194L1106.38 380.466L1105.34 383.313H1108.37V381.194ZM1132.68 314.74V312.621H1131.2L1130.69 314.012L1132.68 314.74ZM1134.46 314.74L1136.47 314.066L1135.99 312.621H1134.46V314.74ZM1156.76 381.194V383.313H1159.71L1158.77 380.52L1156.76 381.194ZM1172.37 276.941H1096.55V281.179H1172.37V276.941ZM1094.55 278.369L1034.56 452.309L1038.57 453.691L1098.56 279.751L1094.55 278.369ZM1036.57 455.119H1087.86V450.881H1036.57V455.119ZM1089.9 453.577L1099.48 419.681L1095.41 418.527L1085.82 452.423L1089.9 453.577ZM1097.45 421.223H1167.24V416.985H1097.45V421.223ZM1165.23 419.754L1176.15 453.65L1180.19 452.35L1169.26 418.454L1165.23 419.754ZM1178.17 455.119H1231.69V450.881H1178.17V455.119ZM1233.7 452.316L1174.38 278.376L1170.37 279.744L1229.69 453.684L1233.7 452.316ZM1110.36 381.922L1134.67 315.468L1130.69 314.012L1106.38 380.466L1110.36 381.922ZM1132.68 316.859H1134.46V312.621H1132.68V316.859ZM1132.45 315.414L1154.75 381.868L1158.77 380.52L1136.47 314.066L1132.45 315.414ZM1156.76 379.075H1108.37V383.313H1156.76V379.075ZM1370.82 279.06L1372.67 280.084L1374.41 276.941H1370.82V279.06ZM1319.53 279.06V276.941H1318.23L1317.64 278.097L1319.53 279.06ZM1286.52 343.73V345.849H1287.82L1288.41 344.693L1286.52 343.73ZM1285.19 343.73L1283.29 344.678L1283.88 345.849H1285.19V343.73ZM1252.85 279.06L1254.75 278.112L1254.16 276.941H1252.85V279.06ZM1199.33 279.06V276.941H1195.71L1197.48 280.098L1199.33 279.06ZM1262.22 391.006H1264.34V390.452L1264.07 389.968L1262.22 391.006ZM1262.22 453H1260.1V455.119H1262.22V453ZM1309.05 453V455.119H1311.17V453H1309.05ZM1309.05 391.006L1307.19 389.982L1306.93 390.46V391.006H1309.05ZM1370.82 276.941H1319.53V281.179H1370.82V276.941ZM1317.64 278.097L1284.64 342.767L1288.41 344.693L1321.42 280.023L1317.64 278.097ZM1286.52 341.611H1285.19V345.849H1286.52V341.611ZM1287.08 342.782L1254.75 278.112L1250.96 280.008L1283.29 344.678L1287.08 342.782ZM1252.85 276.941H1199.33V281.179H1252.85V276.941ZM1197.48 280.098L1260.37 392.044L1264.07 389.968L1201.18 278.022L1197.48 280.098ZM1260.1 391.006V453H1264.34V391.006H1260.1ZM1262.22 455.119H1309.05V450.881H1262.22V455.119ZM1311.17 453V391.006H1306.93V453H1311.17ZM1310.9 392.03L1372.67 280.084L1368.96 278.036L1307.19 389.982L1310.9 392.03Z" fill="white"/>
<path d="M505.25 61.4885C505.25 61.8952 505.079 62.3569 504.626 62.8838C504.169 63.4157 503.454 63.9764 502.456 64.553C500.458 65.706 497.464 66.8431 493.539 67.9394C485.7 70.1287 474.322 72.1088 460.221 73.7747C432.028 77.1052 393.058 79.1672 350 79.1672C306.942 79.1672 267.972 77.1052 239.779 73.7747C225.678 72.1088 214.3 70.1287 206.461 67.9394C202.536 66.8431 199.542 65.706 197.544 64.553C196.546 63.9764 195.831 63.4157 195.374 62.8838C194.921 62.3569 194.75 61.8952 194.75 61.4885C194.75 61.0818 194.921 60.6201 195.374 60.0932C195.831 59.5613 196.546 59.0005 197.544 58.424C199.542 57.271 202.536 56.1338 206.461 55.0376C214.3 52.8483 225.678 50.8681 239.779 49.2023C267.972 45.8717 306.942 43.8098 350 43.8098C393.058 43.8098 432.028 45.8717 460.221 49.2023C474.322 50.8681 485.7 52.8483 493.539 55.0376C497.464 56.1338 500.458 57.271 502.456 58.424C503.454 59.0005 504.169 59.5613 504.626 60.0932C505.079 60.6201 505.25 61.0818 505.25 61.4885Z" stroke="white" stroke-width="1.5"/>
<path d="M505.25 107.247C505.25 108.822 504.341 110.474 502.343 112.185C500.35 113.891 497.367 115.571 493.454 117.191C485.634 120.43 474.273 123.363 460.179 125.832C432.003 130.768 393.049 133.826 350 133.826C306.951 133.826 267.997 130.768 239.821 125.832C225.727 123.363 214.366 120.43 206.546 117.191C202.633 115.571 199.65 113.891 197.657 112.185C195.659 110.474 194.75 108.822 194.75 107.247C194.75 105.672 195.659 104.019 197.657 102.309C199.65 100.603 202.633 98.9228 206.546 97.302C214.366 94.0632 225.727 91.1302 239.821 88.6611C267.997 83.725 306.951 80.6679 350 80.6679C393.049 80.6679 432.003 83.725 460.179 88.6611C474.273 91.1302 485.634 94.0632 493.454 97.302C497.367 98.9228 500.35 100.603 502.343 102.309C504.341 104.019 505.25 105.672 505.25 107.247Z" stroke="white" stroke-width="1.5"/>
<path d="M505.25 176.982C505.25 182.439 501.172 187.821 493.335 192.858C485.533 197.872 474.192 202.417 460.112 206.244C431.962 213.897 393.031 218.639 350 218.639C306.969 218.639 268.038 213.897 239.888 206.244C225.808 202.417 214.467 197.872 206.665 192.858C198.828 187.821 194.75 182.439 194.75 176.982C194.75 171.525 198.828 166.143 206.665 161.106C214.467 156.091 225.808 151.547 239.888 147.719C268.038 140.067 306.969 135.325 350 135.325C393.031 135.325 431.962 140.067 460.112 147.719C474.192 151.547 485.533 156.091 493.335 161.106C501.172 166.143 505.25 171.525 505.25 176.982Z" stroke="white" stroke-width="1.5"/>
<path d="M350 61.2899L350 176.747" stroke="white" stroke-width="1.5"/>
</svg>
