<svg width="1378" height="365" viewBox="0 0 1378 365" fill="none" xmlns="http://www.w3.org/2000/svg">
<path d="M0.274922 4.8541V170.214H102.247C144.859 170.214 152.915 163.006 152.915 124.634V120.394C152.915 95.5901 144.859 88.3821 116.239 86.4741C140.195 83.9301 146.979 77.7821 146.979 52.3421V47.8901C146.979 11.6381 139.983 4.8541 102.247 4.8541H0.274922ZM44.7949 132.902V103.222H89.7389C105.427 103.222 108.395 105.554 108.395 118.274C108.395 130.146 105.427 132.902 89.7389 132.902H44.7949ZM44.7949 68.8781V41.3181H87.6189C100.127 41.3181 102.459 43.6501 102.459 55.3101C102.459 66.5461 100.127 68.8781 87.6189 68.8781H44.7949ZM291.451 4.8541H219.371L162.343 170.214H211.103L220.219 137.99H286.575L296.963 170.214H347.843L291.451 4.8541ZM230.607 101.95L253.715 38.7741H255.411L276.611 101.95H230.607ZM401.734 115.73V113.61H355.094V115.73C355.094 163.854 366.966 172.758 436.078 172.758C503.282 172.758 514.518 165.126 514.518 125.27C514.518 92.4101 510.278 85.2021 487.17 78.8421C472.754 74.8141 461.094 72.2701 436.078 67.3941C409.154 63.5781 402.794 61.2461 402.794 52.7661C402.794 40.8941 407.882 38.3501 436.078 38.3501C461.942 38.3501 465.97 41.9541 465.97 59.5501V61.6701H512.61V59.5501C512.61 11.2141 500.526 2.3101 436.078 2.3101C373.326 2.3101 358.274 12.2741 358.274 48.3141C358.274 83.2941 363.574 90.9261 391.346 97.4981C413.606 102.586 421.874 104.494 436.078 106.826C462.154 111.914 469.998 114.246 469.998 123.362C469.998 134.598 464.274 136.718 436.078 136.718C407.458 136.718 401.734 134.174 401.734 115.73ZM531.306 4.8541V170.214H666.774V132.054H575.826V104.494H655.962V68.4541H575.826V43.0141H666.774V4.8541H531.306ZM730.201 170.214V47.2541H731.473L755.853 170.214H815.213L843.197 47.2541H844.469V170.214H888.989V4.8541H811.185L786.381 132.054H784.685L763.273 4.8541H685.681V170.214H730.201ZM907.962 4.8541V170.214H1043.43V132.054H952.482V104.494H1032.62V68.4541H952.482V43.0141H1043.43V4.8541H907.962ZM1062.34 170.214H1104.74V68.4541H1106.01L1168.34 170.214H1219.22V4.8541H1176.82V106.614H1175.55L1115.34 4.8541H1062.34V170.214ZM1281.49 170.214H1326.01V40.8941H1377.1V4.8541H1230.82V40.8941H1281.49V170.214Z" fill="white"/>
<path d="M245.044 298.396H247.044V296.396H245.044V298.396ZM198.404 298.396V296.396H196.404V298.396H198.404ZM330.48 263.628L329.942 265.554L329.949 265.556L330.48 263.628ZM279.388 252.18L279.771 250.217L279.72 250.207L279.669 250.2L279.388 252.18ZM309.28 246.456H307.28V248.456H309.28V246.456ZM355.92 246.456V248.456H357.92V246.456H355.92ZM234.656 282.284L234.196 284.23L234.203 284.232L234.21 284.234L234.656 282.284ZM279.388 291.612L279.771 289.649L279.742 289.643L279.712 289.638L279.388 291.612ZM247.044 300.516V298.396H243.044V300.516H247.044ZM245.044 296.396H198.404V300.396H245.044V296.396ZM196.404 298.396V300.516H200.404V298.396H196.404ZM196.404 300.516C196.404 324.531 199.3 339.817 211.821 348.707C217.995 353.091 226.317 355.773 237.288 357.38C248.269 358.988 262.088 359.544 279.388 359.544V355.544C262.132 355.544 248.55 354.987 237.868 353.422C227.175 351.856 219.57 349.303 214.137 345.446C203.444 337.853 200.404 324.625 200.404 300.516H196.404ZM279.388 359.544C296.209 359.544 309.615 359.068 320.249 357.713C330.865 356.36 338.898 354.113 344.857 350.45C357.064 342.947 359.828 330.009 359.828 310.056H355.828C355.828 329.959 352.974 340.765 342.762 347.042C337.512 350.269 330.135 352.421 319.743 353.745C309.369 355.066 296.169 355.544 279.388 355.544V359.544ZM359.828 310.056C359.828 293.699 358.808 283.132 354.543 275.89C350.167 268.46 342.632 264.898 331.011 261.7L329.949 265.556C341.436 268.718 347.575 271.94 351.096 277.919C354.728 284.086 355.828 293.553 355.828 310.056H359.828ZM331.018 261.702C316.523 257.652 304.799 255.095 279.771 250.217L279.005 254.143C304.009 259.017 315.605 261.548 329.942 265.554L331.018 261.702ZM279.669 250.2C266.135 248.282 258.1 246.771 253.436 244.776C251.154 243.8 249.889 242.79 249.164 241.741C248.453 240.713 248.104 239.421 248.104 237.552H244.104C244.104 239.923 244.551 242.103 245.873 244.016C247.182 245.909 249.19 247.31 251.863 248.454C257.11 250.699 265.718 252.262 279.107 254.16L279.669 250.2ZM248.104 237.552C248.104 234.683 248.42 232.659 249.142 231.158C249.822 229.744 250.946 228.621 252.981 227.721C255.087 226.79 258.115 226.127 262.482 225.71C266.828 225.295 272.356 225.136 279.388 225.136V221.136C272.322 221.136 266.641 221.295 262.102 221.728C257.585 222.159 254.055 222.874 251.364 224.063C248.602 225.283 246.693 227.022 245.537 229.424C244.424 231.739 244.104 234.485 244.104 237.552H248.104ZM279.388 225.136C285.829 225.136 290.807 225.362 294.668 225.951C298.539 226.542 301.104 227.473 302.853 228.752C306.195 231.196 307.28 235.47 307.28 244.336H311.28C311.28 235.606 310.351 229.28 305.214 225.523C302.722 223.701 299.431 222.632 295.272 221.997C291.103 221.361 285.879 221.136 279.388 221.136V225.136ZM307.28 244.336V246.456H311.28V244.336H307.28ZM309.28 248.456H355.92V244.456H309.28V248.456ZM357.92 246.456V244.336H353.92V246.456H357.92ZM357.92 244.336C357.92 220.213 354.969 204.907 343.018 195.987C337.109 191.576 329.192 188.88 318.843 187.266C308.489 185.652 295.524 185.096 279.388 185.096V189.096C295.476 189.096 308.189 189.653 318.227 191.219C328.27 192.785 335.458 195.336 340.626 199.193C350.829 206.809 353.92 220.123 353.92 244.336H357.92ZM279.388 185.096C263.661 185.096 250.844 185.719 240.468 187.237C230.103 188.753 222.045 191.179 215.922 194.87C203.403 202.415 199.584 214.84 199.584 233.1H203.584C203.584 215.32 207.291 204.743 217.987 198.296C223.47 194.991 230.941 192.673 241.047 191.195C251.143 189.718 263.739 189.096 279.388 189.096V185.096ZM199.584 233.1C199.584 250.526 200.864 261.788 206.048 269.464C211.313 277.259 220.293 280.94 234.196 284.23L235.117 280.338C221.247 277.056 213.691 273.635 209.363 267.226C204.954 260.698 203.584 250.654 203.584 233.1H199.584ZM234.21 284.234C256.462 289.32 264.789 291.242 279.064 293.586L279.712 289.638C265.579 287.318 257.371 285.424 235.102 280.334L234.21 284.234ZM279.005 293.575C292.126 296.135 300.342 297.951 305.303 300.192C307.742 301.294 309.193 302.416 310.054 303.606C310.89 304.761 311.308 306.172 311.308 308.148H315.308C315.308 305.566 314.746 303.267 313.296 301.262C311.871 299.292 309.731 297.803 306.95 296.547C301.47 294.071 292.727 292.177 279.771 289.649L279.005 293.575ZM311.308 308.148C311.308 310.827 310.959 312.668 310.22 314.012C309.52 315.287 308.346 316.337 306.194 317.176C303.986 318.038 300.855 318.635 296.418 319.004C292.001 319.371 286.424 319.504 279.388 319.504V323.504C286.451 323.504 292.162 323.372 296.749 322.99C301.315 322.611 304.901 321.975 307.649 320.903C310.453 319.808 312.472 318.221 313.726 315.938C314.942 313.724 315.308 311.087 315.308 308.148H311.308ZM279.388 319.504C272.243 319.504 266.617 319.344 262.177 318.832C257.719 318.317 254.646 317.464 252.496 316.202C248.509 313.86 247.044 309.688 247.044 300.516H243.044C243.044 309.788 244.441 316.11 250.471 319.651C253.33 321.33 257.053 322.266 261.718 322.805C266.401 323.346 272.223 323.504 279.388 323.504V319.504ZM532.321 189.64H534.321V187.64H532.321V189.64ZM487.801 189.64V187.64H485.801V189.64H487.801ZM430.137 189.64H432.137V187.64H430.137V189.64ZM385.617 189.64V187.64H383.617V189.64H385.617ZM534.321 287.16V189.64H530.321V287.16H534.321ZM532.321 187.64H487.801V191.64H532.321V187.64ZM485.801 189.64V287.16H489.801V189.64H485.801ZM485.801 287.16C485.801 294.394 485.521 300.031 484.754 304.436C483.987 308.838 482.76 311.836 480.995 313.938C477.503 318.097 471.253 319.504 458.969 319.504V323.504C471.065 323.504 479.23 322.261 484.059 316.509C486.455 313.656 487.865 309.883 488.694 305.123C489.523 300.365 489.801 294.448 489.801 287.16H485.801ZM458.969 319.504C446.685 319.504 440.434 318.097 436.942 313.938C435.177 311.836 433.951 308.838 433.184 304.436C432.416 300.031 432.137 294.394 432.137 287.16H428.137C428.137 294.448 428.414 300.365 429.243 305.123C430.073 309.883 431.482 313.656 433.878 316.509C438.707 322.261 446.873 323.504 458.969 323.504V319.504ZM432.137 287.16V189.64H428.137V287.16H432.137ZM430.137 187.64H385.617V191.64H430.137V187.64ZM383.617 189.64V287.16H387.617V189.64H383.617ZM383.617 287.16C383.617 302.035 384.331 314.028 386.418 323.625C388.512 333.249 392.016 340.604 397.694 346.055C403.364 351.498 411.002 354.85 420.998 356.855C430.977 358.856 443.461 359.544 458.969 359.544V355.544C443.525 355.544 431.363 354.854 421.785 352.933C412.224 351.016 405.394 347.902 400.464 343.169C395.542 338.444 392.315 331.913 390.327 322.775C388.333 313.61 387.617 301.965 387.617 287.16H383.617ZM458.969 359.544C474.477 359.544 486.96 358.856 496.939 356.855C506.935 354.85 514.574 351.498 520.244 346.055C525.922 340.604 529.426 333.249 531.519 323.625C533.606 314.028 534.321 302.035 534.321 287.16H530.321C530.321 301.965 529.604 313.61 527.61 322.775C525.623 331.913 522.396 338.444 517.474 343.169C512.544 347.902 505.713 351.016 496.152 352.933C486.574 354.854 474.413 355.544 458.969 355.544V359.544ZM562.378 189.64V187.64H560.378V189.64H562.378ZM562.378 355H560.378V357H562.378V355ZM606.898 355V357H608.898V355H606.898ZM606.898 311.54V309.54H604.898V311.54H606.898ZM660.746 311.54V313.54H660.799L660.852 313.537L660.746 311.54ZM606.898 273.38H604.898V275.38H606.898V273.38ZM606.898 225.68V223.68H604.898V225.68H606.898ZM560.378 189.64V355H564.378V189.64H560.378ZM562.378 357H606.898V353H562.378V357ZM608.898 355V311.54H604.898V355H608.898ZM606.898 313.54H660.746V309.54H606.898V313.54ZM660.852 313.537C681.053 312.474 694.624 308.856 702.993 299.519C711.328 290.22 714.05 275.738 714.05 254.3H710.05C710.05 275.686 707.261 288.764 700.014 296.849C692.801 304.896 680.72 308.486 660.641 309.543L660.852 313.537ZM714.05 254.3V245.82H710.05V254.3H714.05ZM714.05 245.82C714.05 223.753 711.121 208.949 702.136 199.793C693.138 190.624 678.584 187.64 656.93 187.64V191.64C678.525 191.64 691.531 194.698 699.281 202.595C707.044 210.505 710.05 223.791 710.05 245.82H714.05ZM656.93 187.64H562.378V191.64H656.93V187.64ZM608.898 273.38V225.68H604.898V273.38H608.898ZM606.898 227.68H645.482V223.68H606.898V227.68ZM645.482 227.68C650.11 227.68 653.634 227.92 656.346 228.549C659.022 229.17 660.777 230.14 662.013 231.519C663.267 232.92 664.17 234.947 664.743 238.03C665.317 241.122 665.53 245.106 665.53 250.272H669.53C669.53 245.05 669.32 240.766 668.675 237.299C668.029 233.823 666.918 231.001 664.992 228.851C663.048 226.679 660.457 225.397 657.25 224.653C654.079 223.917 650.183 223.68 645.482 223.68V227.68ZM665.53 250.272C665.53 255.117 665.317 258.84 664.747 261.723C664.18 264.589 663.29 266.463 662.054 267.761C660.827 269.049 659.068 269.969 656.371 270.558C653.646 271.153 650.112 271.38 645.482 271.38V275.38C650.181 275.38 654.066 275.156 657.225 274.466C660.411 273.77 662.998 272.57 664.951 270.519C666.895 268.478 668.019 265.794 668.671 262.499C669.32 259.22 669.53 255.179 669.53 250.272H665.53ZM645.482 271.38H606.898V275.38H645.482V271.38ZM738.933 189.64V187.64H736.933V189.64H738.933ZM738.933 355H736.933V357H738.933V355ZM783.453 355V357H785.453V355H783.453ZM783.453 311.54V309.54H781.453V311.54H783.453ZM837.301 311.54V313.54H837.354L837.406 313.537L837.301 311.54ZM783.453 273.38H781.453V275.38H783.453V273.38ZM783.453 225.68V223.68H781.453V225.68H783.453ZM736.933 189.64V355H740.933V189.64H736.933ZM738.933 357H783.453V353H738.933V357ZM785.453 355V311.54H781.453V355H785.453ZM783.453 313.54H837.301V309.54H783.453V313.54ZM837.406 313.537C857.608 312.474 871.178 308.856 879.547 299.519C887.883 290.22 890.605 275.738 890.605 254.3H886.605C886.605 275.686 883.815 288.764 876.569 296.849C869.356 304.896 857.274 308.486 837.196 309.543L837.406 313.537ZM890.605 254.3V245.82H886.605V254.3H890.605ZM890.605 245.82C890.605 223.753 887.676 208.949 878.691 199.793C869.693 190.624 855.139 187.64 833.485 187.64V191.64C855.079 191.64 868.086 194.698 875.836 202.595C883.598 210.505 886.605 223.791 886.605 245.82H890.605ZM833.485 187.64H738.933V191.64H833.485V187.64ZM785.453 273.38V225.68H781.453V273.38H785.453ZM783.453 227.68H822.037V223.68H783.453V227.68ZM822.037 227.68C826.664 227.68 830.188 227.92 832.901 228.549C835.577 229.17 837.332 230.14 838.567 231.519C839.821 232.92 840.724 234.947 841.297 238.03C841.872 241.122 842.085 245.106 842.085 250.272H846.085C846.085 245.05 845.874 240.766 845.23 237.299C844.584 233.823 843.473 231.001 841.547 228.851C839.602 226.679 837.011 225.397 833.805 224.653C830.634 223.917 826.738 223.68 822.037 223.68V227.68ZM842.085 250.272C842.085 255.117 841.872 258.84 841.302 261.723C840.735 264.589 839.845 266.463 838.609 267.761C837.382 269.049 835.622 269.969 832.926 270.558C830.201 271.153 826.666 271.38 822.037 271.38V275.38C826.736 275.38 830.621 275.156 833.779 274.466C836.966 273.77 839.553 272.57 841.505 270.519C843.45 268.478 844.574 265.794 845.226 262.499C845.874 259.22 846.085 255.179 846.085 250.272H842.085ZM822.037 271.38H783.453V275.38H822.037V271.38ZM915.488 189.64V187.64H913.488V189.64H915.488ZM915.488 355H913.488V357H915.488V355ZM1034 355V357H1036V355H1034ZM1034 316.84H1036V314.84H1034V316.84ZM960.008 316.84H958.008V318.84H960.008V316.84ZM960.008 189.64H962.008V187.64H960.008V189.64ZM913.488 189.64V355H917.488V189.64H913.488ZM915.488 357H1034V353H915.488V357ZM1036 355V316.84H1032V355H1036ZM1034 314.84H960.008V318.84H1034V314.84ZM962.008 316.84V189.64H958.008V316.84H962.008ZM960.008 187.64H915.488V191.64H960.008V187.64ZM1184.71 189.64L1186.46 190.606L1188.1 187.64H1184.71V189.64ZM1135.95 189.64V187.64H1134.73L1134.17 188.731L1135.95 189.64ZM1104.58 251.12V253.12H1105.8L1106.36 252.029L1104.58 251.12ZM1103.3 251.12L1101.52 252.014L1102.07 253.12H1103.3V251.12ZM1072.57 189.64L1074.35 188.746L1073.8 187.64H1072.57V189.64ZM1021.68 189.64V187.64H1018.27L1019.94 190.62L1021.68 189.64ZM1081.47 296.064H1083.47V295.541L1083.21 295.084L1081.47 296.064ZM1081.47 355H1079.47V357H1081.47V355ZM1125.99 355V357H1127.99V355H1125.99ZM1125.99 296.064L1124.24 295.098L1123.99 295.549V296.064H1125.99ZM1184.71 187.64H1135.95V191.64H1184.71V187.64ZM1134.17 188.731L1102.8 250.211L1106.36 252.029L1137.73 190.549L1134.17 188.731ZM1104.58 249.12H1103.3V253.12H1104.58V249.12ZM1105.09 250.226L1074.35 188.746L1070.78 190.534L1101.52 252.014L1105.09 250.226ZM1072.57 187.64H1021.68V191.64H1072.57V187.64ZM1019.94 190.62L1079.73 297.044L1083.21 295.084L1023.43 188.66L1019.94 190.62ZM1079.47 296.064V355H1083.47V296.064H1079.47ZM1081.47 357H1125.99V353H1081.47V357ZM1127.99 355V296.064H1123.99V355H1127.99ZM1127.74 297.03L1186.46 190.606L1182.96 188.674L1124.24 295.098L1127.74 297.03Z" fill="white"/>
<path d="M1264.85 294.271V290.871H1258.01L1262.63 286.951C1264.39 285.451 1264.65 284.951 1264.73 282.431C1264.85 279.231 1263.81 278.431 1258.41 278.431C1252.99 278.431 1252.19 279.271 1252.19 283.831V284.031H1256.19V283.831C1256.19 282.171 1256.67 281.631 1258.39 281.631C1260.17 281.631 1260.65 282.071 1260.65 283.191C1260.65 284.191 1260.15 284.691 1259.01 285.651L1252.11 291.471V294.271H1264.85ZM1266.65 294.271H1270.85V288.011H1273.07L1276.61 294.271H1281.41L1276.35 286.111L1281.21 278.671H1276.61L1272.95 284.411H1270.85V278.671H1266.65V294.271ZM1285.41 294.271H1289.21V278.671H1285.61C1285.61 280.711 1285.17 281.091 1283.43 281.091H1281.61V283.891H1285.41V294.271ZM1290.61 283.611V284.251C1290.61 288.091 1291.59 288.931 1295.17 288.931C1297.61 288.931 1298.89 288.251 1299.39 286.511V289.911C1299.39 291.251 1299.01 291.511 1296.83 291.511C1295.37 291.511 1295.07 291.351 1295.07 290.431H1291.07C1291.07 293.811 1291.83 294.431 1296.97 294.431C1302.25 294.431 1303.19 293.771 1303.19 290.191V282.951C1303.15 279.451 1301.87 278.431 1296.99 278.431C1291.61 278.431 1290.61 279.251 1290.61 283.611ZM1294.61 283.831V283.811C1294.61 281.951 1294.95 281.631 1296.99 281.631C1299.05 281.631 1299.39 281.871 1299.39 283.131V284.391C1299.39 285.551 1298.79 285.831 1296.99 285.831C1294.95 285.831 1294.61 285.511 1294.61 283.831Z" fill="white"/>
<path d="M1352.25 285.366C1352.25 294.849 1344.11 303.66 1330.42 310.144C1316.79 316.602 1297.9 320.616 1277 320.616C1256.1 320.616 1237.21 316.602 1223.58 310.144C1209.89 303.66 1201.75 294.849 1201.75 285.366C1201.75 275.884 1209.89 267.073 1223.58 260.588C1237.21 254.131 1256.1 250.116 1277 250.116C1297.9 250.116 1316.79 254.131 1330.42 260.588C1344.11 267.073 1352.25 275.884 1352.25 285.366Z" stroke="white" stroke-width="1.5"/>
<path d="M79.8492 278.671V294.271H92.6292V290.671H84.0492V288.071H91.6092V284.671H84.0492V282.271H92.6292V278.671H79.8492ZM98.2242 289.131V288.931H93.8242V289.131C93.8242 293.671 94.9442 294.511 101.464 294.511C107.804 294.511 108.864 293.791 108.864 290.031C108.864 286.931 108.464 286.251 106.284 285.651C104.924 285.271 103.824 285.031 101.464 284.571C98.9242 284.211 98.3242 283.991 98.3242 283.191C98.3242 282.071 98.8042 281.831 101.464 281.831C103.904 281.831 104.284 282.171 104.284 283.831V284.031H108.684V283.831C108.684 279.271 107.544 278.431 101.464 278.431C95.5442 278.431 94.1242 279.371 94.1242 282.771C94.1242 286.071 94.6242 286.791 97.2442 287.411C99.3442 287.891 100.124 288.071 101.464 288.291C103.924 288.771 104.664 288.991 104.664 289.851C104.664 290.911 104.124 291.111 101.464 291.111C98.7642 291.111 98.2242 290.871 98.2242 289.131ZM114.339 294.271H118.539V282.071H123.359V278.671H109.559V282.071H114.339V294.271Z" fill="white"/>
<path d="M176.25 285.366C176.25 294.849 168.109 303.66 154.419 310.144C140.787 316.602 121.901 320.616 101 320.616C80.0991 320.616 61.2134 316.602 47.5811 310.144C33.8915 303.66 25.7501 294.849 25.7501 285.366C25.7501 275.884 33.8915 267.073 47.5811 260.588C61.2134 254.131 80.0991 250.116 101 250.116C121.901 250.116 140.787 254.131 154.419 260.588C168.109 267.073 176.25 275.884 176.25 285.366Z" stroke="white" stroke-width="1.5"/>
</svg>
