<svg width="192" height="30" viewBox="0 0 192 30" fill="none" xmlns="http://www.w3.org/2000/svg">
<path d="M6.36039 15.9578C6.52689 14.0876 7.72571 13.1872 9.99014 13.1872C13.0538 13.1872 13.6199 13.8798 13.6199 16.9621V19.5942C13.6199 22.6418 13.0538 23.3345 9.99014 23.3345C7.75901 23.3345 6.56019 22.6418 6.36039 21.2912V15.9578ZM0 0.927246V28.6332H6.16059V23.6462C6.8266 27.2479 8.99113 29.0488 12.6875 29.0488C18.8814 29.0488 20.28 27.4904 20.28 19.7327V16.7543C20.28 8.99662 18.9147 7.43816 13.0205 7.43816C9.02443 7.43816 7.093 8.37323 6.32709 11.5941V0.927246H0Z" fill="#FAFAFA"/>
<path d="M29.0899 22.7108C29.0899 21.3948 29.4229 21.1523 31.1545 21.1523L36.3827 21.1177V22.0181C36.3827 23.6805 35.3504 24.3039 32.5199 24.3732H32.1868C29.5894 24.3732 29.0899 24.0961 29.0899 22.7108ZM33.8852 7.43787H32.3533C24.561 7.43787 23.0958 8.54611 23.0958 14.2605V15.0916H29.4229C29.3563 12.702 29.9224 12.2864 33.0527 12.2864C35.8499 12.2864 36.3827 12.702 36.3827 15.0916V16.2692L30.0556 16.3038C23.6286 16.3038 22.4298 17.3081 22.4298 22.6415C22.4298 28.2174 23.6286 29.2563 30.1555 29.0485C33.2858 29.0139 35.5169 27.7325 36.3827 24.9619V28.6329H42.7098V14.6414C42.7098 8.58074 41.3112 7.43787 33.8852 7.43787Z" fill="#FAFAFA"/>
<path d="M50.8411 22.122V21.6718H44.847V22.122C44.847 27.9403 46.2457 29.0485 53.5718 29.0485H55.1036C63.4953 29.0485 65.0271 28.0788 65.0271 23.0918C65.0271 19.8709 64.2612 18.0008 61.0644 17.0311C59.366 16.5116 57.8342 16.096 54.5708 15.5419C52.4062 15.1955 51.8068 14.78 51.8068 13.9141C51.8068 12.6327 52.4729 12.2864 54.9371 12.2864C57.5012 12.2864 58.2005 12.7713 58.2005 14.4683V15.0916H64.5276V14.4683C64.5276 8.54611 63.129 7.43787 55.703 7.43787H54.1712C46.5787 7.43787 45.1468 8.40758 45.1468 13.7063C45.1468 16.4769 45.8461 18.0354 48.5767 19.109C50.5747 19.9056 53.6051 20.3904 54.7706 20.6328C57.701 21.187 58.4003 21.7411 58.4003 22.6069C58.4003 23.8537 57.6344 24.2 54.7706 24.2C51.6736 24.2 50.8411 23.7498 50.8411 22.122Z" fill="#FAFAFA"/>
<path d="M73.6021 15.6111V15.5072C73.6021 12.8059 74.2015 12.2864 77.465 12.2864C80.5619 12.2864 81.2279 12.8059 81.2612 15.6111H73.6021ZM87.7548 22.0181H81.0947C81.0947 23.819 80.5286 24.2 77.465 24.2C74.2015 24.2 73.6021 23.6112 73.6021 20.5636V20.4597H87.9213V17.2735V17.2389C87.9213 8.99633 86.3895 7.43787 78.1976 7.43787H76.6658C68.4738 7.43787 66.942 9.13486 66.942 18.2432C66.942 27.3516 68.4738 29.0485 76.6658 29.0485H78.1976C86.2563 29.0485 87.7548 27.9403 87.7548 22.0181Z" fill="#FAFAFA"/>
<path d="M90.7247 7.85346V28.633H97.0518V16.6155C97.0518 14.1912 98.1507 12.9791 100.349 12.9791C102.913 12.9791 103.379 13.4986 103.379 16.1999V28.633H109.673L109.639 16.4077C109.706 14.1219 110.805 12.9791 112.936 12.9791C115.467 12.9791 115.933 13.4986 115.933 16.1999V28.633H122.227L122.194 15.1955C122.194 8.68464 121.061 7.43787 114.967 7.43787C111.604 7.43787 109.573 8.9617 108.84 12.2518C108.574 8.30368 107.475 7.43787 102.447 7.43787C99.4495 7.43787 97.7511 8.71927 97.0518 11.8362V7.85346H90.7247Z" fill="#FAFAFA"/>
<path d="M131.343 15.6111V15.5072C131.343 12.8059 131.942 12.2864 135.206 12.2864C138.303 12.2864 138.969 12.8059 139.002 15.6111H131.343ZM145.495 22.0181H138.835C138.835 23.819 138.269 24.2 135.206 24.2C131.942 24.2 131.343 23.6112 131.343 20.5636V20.4597H145.662V17.2735V17.2389C145.662 8.99633 144.13 7.43787 135.938 7.43787H134.406C126.214 7.43787 124.683 9.13486 124.683 18.2432C124.683 27.3516 126.214 29.0485 134.406 29.0485H135.938C143.997 29.0485 145.495 27.9403 145.495 22.0181Z" fill="#FAFAFA"/>
<path d="M148.395 7.85346V28.633H154.722V16.2692C154.756 14.0527 155.921 12.9791 158.219 12.9791C161.149 12.9791 161.682 13.5678 161.682 16.754V28.633H168.009L167.976 15.1955C167.976 8.68464 166.877 7.43787 161.083 7.43787C157.453 7.43787 155.488 8.71927 154.722 12.0786V7.85346H148.395Z" fill="#FAFAFA"/>
<path d="M183.938 22.7455H180.241C178.31 22.7455 177.944 22.3991 177.944 20.6329V13.3947H183.605V7.85349H177.944V3.42053H171.95V7.85349H169.619V13.3947H171.617V21.6372C171.617 27.5248 172.915 28.633 179.609 28.633H183.938V22.7455Z" fill="#FAFAFA"/>
<path d="M192 22.7455H186.339V28.633H192V22.7455Z" fill="#FAFAFA"/>
</svg>
